<svg width="234" height="371" viewBox="0 0 234 371" fill="none" xmlns="http://www.w3.org/2000/svg">
<path d="M181.215 86.3975C181.215 86.3975 195.75 63.9185 225.793 71.989C225.793 71.989 268.976 86.1862 261.202 116.017C261.202 116.017 253.469 136.004 232.469 126.327C232.427 126.37 207.37 98.6089 181.215 86.3975Z" fill="#6A4B2E" stroke="black" stroke-width="2" stroke-miterlimit="10"/>
<path d="M86.3977 181.215C86.3977 181.215 63.9186 195.751 71.9891 225.793C71.9891 225.793 86.1864 268.977 116.018 261.202C116.018 261.202 136.004 253.469 126.328 232.469C126.37 232.427 98.609 207.37 86.3977 181.215Z" fill="#6A4B2E" stroke="black" stroke-width="2" stroke-miterlimit="10"/>
<path d="M234.5 341.5L108.496 214.131C108.496 214.131 61.0453 166.68 114.285 112.003C114.285 112.003 166.257 61.4677 214.596 106.257L338.484 228.708L234.5 341.5Z" fill="#906526" stroke="black" stroke-width="2" stroke-miterlimit="10"/>
<path d="M142.172 194.399C146.746 189.825 146.746 182.409 142.172 177.835C137.598 173.261 130.183 173.261 125.609 177.835C121.035 182.409 121.035 189.825 125.609 194.399C130.183 198.973 137.598 198.973 142.172 194.399Z" fill="black" stroke="black" stroke-miterlimit="10"/>
<path d="M196.469 140.102C201.043 135.528 201.043 128.112 196.469 123.538C191.895 118.965 184.479 118.965 179.905 123.538C175.331 128.112 175.331 135.528 179.905 140.102C184.479 144.676 191.895 144.676 196.469 140.102Z" fill="black" stroke="black" stroke-miterlimit="10"/>
<path d="M167.061 175.003L177.117 164.947C183.328 158.736 192.117 160.764 191.737 168.243L191.272 177.834C191.018 183.412 185.568 188.863 179.99 189.116L170.399 189.581C162.835 189.961 160.849 181.215 167.061 175.003Z" fill="black" stroke="black" stroke-miterlimit="10"/>
<path d="M186.201 220.089L188.863 187.173L224.061 185.948" stroke="black" stroke-width="2" stroke-miterlimit="10"/>
<path d="M143.779 92.7354C146.145 91.7213 147.666 89.3551 147.412 86.8199C146.694 79.848 145.173 70.4676 131.102 75.2423C128.44 76.1296 125.483 75.1155 123.919 72.7916C121.384 68.9887 115.933 65.7352 105.159 76.7634C103.299 78.7071 100.384 79.1719 98.0177 77.9043C92.736 75.0733 84.0317 72.6226 84.6655 87.7917C84.7922 90.1157 83.5669 92.3551 81.4542 93.3692C76.1302 95.9889 67.4682 101.778 74.3133 109.045C76.2147 111.031 76.2992 114.158 74.6936 116.44C71.6513 120.834 68.4823 127.215 74.3133 129.412C76.3837 130.215 77.8204 132.158 77.9894 134.355C78.4119 140.186 80.3133 149.018 93.074 143.947C93.1163 143.989 105.201 109.088 143.779 92.7354Z" fill="#6A4B2E" stroke="black" stroke-width="2" stroke-miterlimit="10"/>
</svg>
