<svg width="375" height="812" viewBox="0 0 375 812" fill="none" xmlns="http://www.w3.org/2000/svg">
<g clip-path="url(#clip0_308_50)">
<rect width="375" height="812" rx="40" fill="#FEA735"/>
<rect x="121" y="799" width="134" height="5" rx="2.5" fill="black"/>
<path d="M238.787 314.527L265.289 267.389C265.289 267.389 275.996 248.302 297.862 260.187C297.862 260.187 318.317 272.041 308.525 291.171L282.125 338.824" stroke="white" stroke-width="2" stroke-miterlimit="10"/>
<path d="M273.467 277.227C275.307 278.259 277.635 277.604 278.667 275.764C279.699 273.925 279.044 271.596 277.204 270.564C275.365 269.532 273.037 270.187 272.005 272.027C270.973 273.867 271.627 276.195 273.467 277.227Z" fill="white" stroke="white" stroke-width="2" stroke-miterlimit="10"/>
<path d="M295.308 289.478C297.148 290.51 299.476 289.855 300.508 288.015C301.54 286.176 300.885 283.847 299.045 282.815C297.205 281.783 294.877 282.438 293.845 284.278C292.813 286.118 293.468 288.446 295.308 289.478Z" fill="white" stroke="white" stroke-width="2" stroke-miterlimit="10"/>
<path d="M270.7 284.232L279.846 283.821C282.26 283.701 285.172 285.2 286.549 287.246L291.642 294.818C293.509 297.585 291.705 299.925 288.164 299.346L279.903 298.02C278.267 297.75 276.58 296.893 275.362 295.718L269.384 289.885C266.714 287.315 267.404 284.372 270.7 284.232Z" stroke="white" stroke-width="2" stroke-miterlimit="10"/>
<path d="M267.232 285.237C267.232 285.237 278.246 294.521 293.077 298.237" stroke="white" stroke-width="2" stroke-miterlimit="10"/>
<path d="M253.009 289.28C253.009 289.28 241.951 281.111 234.813 291.207C234.813 291.207 226.377 300.35 234.901 314.672C235.773 316.145 237.946 316.135 238.766 314.673L253.009 289.28V289.28Z" stroke="white" stroke-width="2" stroke-miterlimit="10"/>
<path d="M296.429 313.412C296.429 313.412 309.166 318.59 304.272 329.944C304.272 329.944 300.867 341.91 284.201 342.103C282.49 342.126 281.366 340.267 282.186 338.805L296.429 313.412V313.412Z" stroke="white" stroke-width="2" stroke-miterlimit="10"/>
<path d="M-21.2135 102.817L26.9349 73.3315C26.9349 73.3315 45.6425 61.8787 58.9266 82.9638C58.9266 82.9638 71.0131 103.322 53.1018 115.245L10.0448 141.946" stroke="#FCF5EF" stroke-width="2" stroke-miterlimit="10"/>
<path d="M32.2224 97.1838L34.0585 100.196C35.1757 102.046 34.2075 104.051 32.4278 103.525L30.1524 102.869C28.824 102.479 27.8288 100.838 28.0789 99.4849L28.5181 97.1287C28.86 95.3313 31.0863 95.3593 32.2224 97.1838Z" fill="#FCF5EF" stroke="#FCF5EF" stroke-width="2" stroke-miterlimit="10"/>
<path d="M51.1393 126.922C51.1393 126.922 50.0613 117.493 41.3437 112.75" stroke="#FCF5EF" stroke-width="2" stroke-miterlimit="10"/>
<path d="M41.472 133.501C41.472 133.501 43.2235 124.19 36.2579 117.075" stroke="#FCF5EF" stroke-width="2" stroke-miterlimit="10"/>
<path d="M15.491 68.7037C15.491 68.7037 23.4005 73.9537 23.645 83.8712" stroke="#FCF5EF" stroke-width="2" stroke-miterlimit="10"/>
<path d="M5.25198 74.3479C5.25198 74.3479 14.3413 77.0397 17.5248 86.4472" stroke="#FCF5EF" stroke-width="2" stroke-miterlimit="10"/>
<path d="M43.3894 104.294C44.4959 106.101 46.8338 106.684 48.6113 105.596C50.3889 104.508 50.9329 102.161 49.8264 100.353C48.72 98.546 46.382 97.9629 44.6045 99.0511C42.827 100.139 42.283 102.487 43.3894 104.294Z" fill="#FCF5EF" stroke="#FCF5EF" stroke-width="2" stroke-miterlimit="10"/>
<path d="M32.2947 86.1636C33.4012 87.971 35.7391 88.554 37.5166 87.4659C39.2941 86.3777 39.8381 84.0304 38.7317 82.223C37.6252 80.4156 35.2873 79.8326 33.5098 80.9207C31.7323 82.0089 31.1883 84.3562 32.2947 86.1636Z" fill="#FCF5EF" stroke="#FCF5EF" stroke-width="2" stroke-miterlimit="10"/>
<path d="M63.3691 93.6559C63.3691 93.6559 70.471 97.7576 73.2429 106.388C73.2429 106.388 67.2444 114.297 57.8412 111.176C57.8412 111.176 63.0798 105.15 63.3691 93.6559Z" stroke="#FCF5EF" stroke-width="2" stroke-miterlimit="10"/>
<path d="M50.8456 73.4087C50.8456 73.4087 50.4045 65.1987 44.0024 58.8149C44.0024 58.8149 34.223 60.5805 32.7222 70.3524C32.7478 70.3712 40.4837 68.4368 50.8456 73.4087Z" stroke="#FCF5EF" stroke-width="2" stroke-miterlimit="10"/>
<path d="M31.1248 113.403C31.1248 113.403 19.5521 111.084 27.5426 102.4C27.7565 102.164 27.5634 101.785 27.2785 101.85C25.0047 102.26 16.1765 104.019 18.4355 93.8607" stroke="#FCF5EF" stroke-width="2" stroke-miterlimit="10"/>
<path d="M332.721 443.839L317.802 389.431C311.497 369.041 288.736 374.799 288.736 374.799C264.949 381.513 270.574 402.506 270.574 402.506L277.436 428.115" stroke="white" stroke-width="2" stroke-miterlimit="10"/>
<path d="M283.205 403.81C285.229 403.268 286.43 401.188 285.888 399.164C285.345 397.141 283.265 395.94 281.242 396.482C279.218 397.024 278.017 399.104 278.56 401.128C279.102 403.152 281.182 404.352 283.205 403.81Z" fill="white" stroke="white" stroke-miterlimit="10"/>
<path d="M307.227 397.374C309.251 396.831 310.452 394.751 309.909 392.728C309.367 390.704 307.287 389.503 305.264 390.046C303.24 390.588 302.039 392.668 302.581 394.691C303.124 396.715 305.204 397.916 307.227 397.374Z" fill="white" stroke="white" stroke-miterlimit="10"/>
<path d="M332.72 443.759C332.72 443.759 346.246 441.898 344.319 429.771C344.319 429.771 343.975 417.421 327.984 413.15C326.343 412.708 324.805 414.222 325.236 415.83L332.72 443.759Z" stroke="white" stroke-width="2" stroke-miterlimit="10"/>
<path d="M285.087 456.522C285.087 456.522 272.442 461.673 268.048 450.208C268.048 450.208 262.171 439.34 273.884 427.646C275.084 426.443 277.173 426.985 277.604 428.593L285.087 456.522Z" stroke="white" stroke-width="2" stroke-miterlimit="10"/>
<path d="M283.987 376.071C283.987 376.071 280.89 366.382 285.361 362.279C285.361 362.279 291.831 364.292 293.372 373.557C293.372 373.557 289.368 373.046 283.987 376.071Z" stroke="white" stroke-width="2" stroke-miterlimit="10"/>
<path d="M315.541 409.632C318.473 408.846 320.213 405.832 319.427 402.9C318.642 399.968 315.628 398.228 312.696 399.014C309.764 399.799 308.024 402.813 308.809 405.745C309.595 408.678 312.609 410.418 315.541 409.632Z" fill="white"/>
<path d="M282.584 418.463C285.516 417.677 287.256 414.663 286.47 411.731C285.684 408.799 282.671 407.059 279.738 407.845C276.806 408.63 275.066 411.644 275.852 414.576C276.638 417.508 279.651 419.249 282.584 418.463Z" fill="white"/>
<path d="M286.101 410.728L292.318 404.093C293.95 402.334 297.06 401.38 299.458 401.88L308.329 403.73C311.575 404.403 311.915 407.318 308.997 409.362L302.204 414.147C300.854 415.09 299.061 415.651 297.38 415.66L289.085 415.659C285.4 415.664 283.855 413.113 286.101 410.728Z" stroke="white" stroke-miterlimit="10"/>
<path d="M284.313 413.852C284.313 413.852 298.581 412.814 311.701 405.171" stroke="white" stroke-width="0.5" stroke-miterlimit="10"/>
<path d="M49.1975 207.789L82.7932 165.393C82.7932 165.393 95.8297 148.941 114.735 163.516C114.735 163.516 132.308 177.847 120.13 194.478L86.54 237.38" stroke="white" stroke-width="2" stroke-miterlimit="10"/>
<path d="M89.0458 175.952C90.6317 177.208 92.9359 176.941 94.1925 175.355C95.4491 173.77 95.1823 171.465 93.5965 170.209C92.0107 168.952 89.7064 169.219 88.4498 170.805C87.1932 172.391 87.46 174.695 89.0458 175.952Z" fill="white" stroke="white" stroke-miterlimit="10"/>
<path d="M107.871 190.869C109.456 192.125 111.761 191.858 113.017 190.273C114.274 188.687 114.007 186.383 112.421 185.126C110.835 183.869 108.531 184.136 107.274 185.722C106.018 187.308 106.285 189.612 107.871 190.869Z" fill="white" stroke="white" stroke-miterlimit="10"/>
<path d="M49.1978 207.789L81.7603 166.696C81.7603 166.696 86.8071 152.279 108.998 158.916C108.998 158.916 92.4504 137.796 79.7959 156.053C79.7959 156.053 62.5227 148.447 63.8781 167.503C63.8781 167.503 46.9589 164.447 51.5643 181.809C51.5643 181.809 34.5187 185.473 44.8302 203.279C44.8302 203.279 46.2463 205.856 49.1978 207.789Z" stroke="white" stroke-width="2" stroke-miterlimit="10"/>
<path d="M108.257 161.006C108.659 163.209 110.553 170.028 118.638 169.185C119.006 169.142 119.308 168.881 119.429 168.547L124.545 153.665C124.824 152.861 123.983 152.147 123.229 152.527L108.755 160.017C108.391 160.206 108.197 160.601 108.257 161.006Z" stroke="white" stroke-width="2" stroke-miterlimit="10"/>
<path d="M90.3533 217.459C101.741 222.5 104.158 211.084 104.158 211.084C108.896 195.473 96.5726 186.948 96.5726 186.948C85.0694 177.809 71.6685 184.337 71.6685 184.337C58.6704 191.471 68.8874 200.878 68.8874 200.878C68.8874 200.878 82.233 213.862 90.3533 217.459Z" stroke="white" stroke-width="2" stroke-miterlimit="10"/>
<path d="M88.1576 190.225C88.813 190.744 89.7652 190.634 90.2845 189.978C90.8038 189.323 90.6936 188.371 90.0382 187.851C89.3828 187.332 88.4306 187.442 87.9113 188.098C87.3919 188.753 87.5022 189.705 88.1576 190.225Z" fill="white"/>
<path d="M95.4176 195.93C96.073 196.449 97.0252 196.339 97.5445 195.684C98.0639 195.028 97.9536 194.076 97.2982 193.557C96.6429 193.037 95.6906 193.148 95.1713 193.803C94.6519 194.458 94.7622 195.411 95.4176 195.93Z" fill="white"/>
<path d="M79.6877 195.676C79.6877 195.676 81.5579 206.769 91.349 204.917" stroke="white" stroke-miterlimit="10"/>
<path d="M124.603 177.608C124.603 177.608 128.32 176.379 131.772 178.042C131.772 178.042 136.905 180.201 134.22 183.44C134.22 183.44 129.497 187.925 124.269 186.668C124.269 186.668 126.048 180.78 124.603 177.608Z" stroke="white" stroke-width="2" stroke-miterlimit="10"/>
<path d="M98.0726 156.585C98.0726 156.585 98.4194 152.686 96.0118 149.705C96.0118 149.705 92.736 145.201 90.1973 148.555C90.1973 148.555 86.9102 154.178 89.3291 158.981C89.3291 158.981 94.654 155.903 98.0726 156.585Z" stroke="white" stroke-width="2" stroke-miterlimit="10"/>
<path d="M225.239 221.386C219.886 217.706 212.883 218.297 208.197 222.395C211.01 227.639 212.331 234.694 207.471 242.681C208.075 243.276 208.742 243.847 209.46 244.341C215.792 248.693 224.462 247.087 228.814 240.755C233.166 234.424 231.57 225.738 225.239 221.386Z" stroke="white" stroke-width="2" stroke-miterlimit="10"/>
<path d="M215.74 224.116C213.416 222.518 210.674 222.052 208.109 222.54C210.687 227.668 211.749 234.411 207.219 242.016C211.269 243.201 215.804 241.747 218.327 238.077C221.47 233.504 220.313 227.259 215.74 224.116Z" fill="white"/>
<path d="M182.082 191.72C187.434 195.4 189.542 201.735 187.406 207.563C181.502 206.815 174.292 208.524 168.576 215.923C167.804 215.572 167.032 215.154 166.313 214.66C159.982 210.308 158.376 201.637 162.728 195.306C167.08 188.975 175.75 187.368 182.082 191.72Z" stroke="white" stroke-width="2" stroke-miterlimit="10"/>
<path d="M182.456 200.939C184.781 202.537 186.198 204.93 186.661 207.5C180.95 206.93 174.274 208.354 168.796 215.308C166.239 211.951 165.972 207.196 168.495 203.526C171.638 198.953 177.899 197.807 182.456 200.939Z" fill="white"/>
<path d="M176.202 225.893C177.857 227.031 180.122 226.612 181.26 224.956C182.398 223.301 181.978 221.036 180.323 219.899C178.667 218.761 176.403 219.18 175.265 220.836C174.127 222.491 174.546 224.756 176.202 225.893Z" fill="white" stroke="white" stroke-miterlimit="10"/>
<path d="M195.854 239.402C197.509 240.539 199.774 240.12 200.911 238.464C202.049 236.809 201.63 234.545 199.974 233.407C198.319 232.269 196.054 232.688 194.917 234.344C193.779 235.999 194.198 238.264 195.854 239.402Z" fill="white" stroke="white" stroke-miterlimit="10"/>
<path d="M209.309 256.06C209.309 256.06 204.72 248.289 195.295 247.552" stroke="white" stroke-width="2" stroke-miterlimit="10"/>
<path d="M203.467 265.51C203.467 265.51 201.373 256.729 192.589 253.259" stroke="white" stroke-width="2" stroke-miterlimit="10"/>
<path d="M155.814 219.288C155.814 219.288 164.713 220.789 168.777 229.324" stroke="white" stroke-width="2" stroke-miterlimit="10"/>
<path d="M149.084 228.128C149.084 228.128 158.032 226.938 164.419 233.895" stroke="white" stroke-width="2" stroke-miterlimit="10"/>
<path d="M181.332 236.514L184.1 238.416C185.798 239.583 185.711 241.708 183.953 241.94L181.714 242.248C180.399 242.425 178.916 241.405 178.61 240.114L178.095 237.914C177.682 236.189 179.635 235.347 181.332 236.514Z" fill="white" stroke="white" stroke-miterlimit="10"/>
<path d="M169.474 242.594L179.676 241.545L182.041 252.223" stroke="white" stroke-width="2" stroke-miterlimit="10"/>
<path d="M137.849 260.985L168.271 216.726C168.271 216.726 180.076 199.552 199.784 212.716C199.784 212.716 218.156 225.727 207.214 243.022L176.831 287.78" stroke="white" stroke-width="2" stroke-miterlimit="10"/>
<path d="M116.003 598.919L111.747 570.648C111.747 570.648 89.9714 575.322 87.6568 555.421C87.6568 555.421 85.1628 541.349 99.4463 532.972" stroke="#FCF5EF" stroke-width="2" stroke-miterlimit="10"/>
<path d="M100.749 538.009C102.964 538.738 110.182 540.379 113.395 532.531C113.53 532.17 113.469 531.768 113.187 531.495L102.035 519.418C101.448 518.786 100.345 519.174 100.349 520.055L100.037 537.085C100.098 537.486 100.344 537.885 100.749 538.009Z" stroke="#FCF5EF" stroke-width="2" stroke-miterlimit="10"/>
<path d="M172.956 579.55C174.954 568.987 163.174 560.977 163.174 560.977C165.475 542.277 148.693 539.508 148.693 539.508C147.025 519.248 130.654 523.821 130.654 523.821C118.84 500.523 107.043 524.762 107.043 524.762L111.536 529.663L116.57 520.12C117.181 518.935 118.814 518.706 119.706 519.697L122.963 524.14C122.963 524.14 156.229 575.605 158.124 583.803" stroke="#FCF5EF" stroke-width="2" stroke-miterlimit="10"/>
<path d="M116.995 548.999C118.055 547.164 117.426 544.817 115.591 543.758C113.756 542.698 111.409 543.327 110.35 545.162C109.29 546.997 109.919 549.344 111.754 550.404C113.589 551.463 115.936 550.834 116.995 548.999Z" fill="#FCF5EF" stroke="#FCF5EF" stroke-width="2" stroke-miterlimit="10"/>
<path d="M98.6108 626.298C98.6108 626.298 107.689 624.35 113.078 633.698C113.078 633.698 120.188 647.772 110.964 653.182C110.964 653.182 104.166 656.187 101.388 648.663C101.368 648.663 102.031 635.709 98.6108 626.298Z" stroke="white" stroke-miterlimit="10"/>
<path d="M49.5609 626.64C49.8983 626.653 50.185 626.678 50.4105 626.703C48.8241 631.349 48.1753 636.725 47.9206 640.98C47.7877 643.2 47.7616 645.125 47.7675 646.494C47.7704 647.179 47.7813 647.725 47.7909 648.101C47.7951 648.267 47.7991 648.4 47.8019 648.495L47.8029 648.53C47.8035 648.547 47.8039 648.563 47.8043 648.577C47.141 650.333 46.2608 651.446 45.3364 652.144C44.3962 652.854 43.3793 653.158 42.4301 653.246C41.4773 653.334 40.598 653.203 39.9526 653.048C39.6312 652.97 39.3713 652.887 39.1936 652.825C39.1048 652.793 39.0369 652.767 38.9923 652.749C38.9772 652.743 38.9648 652.738 38.9552 652.734C34.6378 650.184 34.0953 645.603 34.7083 641.485C35.0138 639.433 35.6026 637.54 36.1174 636.156C36.3744 635.465 36.612 634.904 36.7847 634.517C36.871 634.324 36.9411 634.174 36.9892 634.073C37.0132 634.022 37.0318 633.984 37.0441 633.959L37.0561 633.935C39.6719 629.406 43.1596 627.634 45.983 626.98C47.4024 626.651 48.6599 626.604 49.5609 626.64Z" stroke="white"/>
<path d="M48.4302 699.776V639.792C48.4302 639.792 48.4302 616.515 74.8989 616.163C74.8989 616.163 100.041 616.515 100.912 639.357L101.264 699.776" stroke="white" stroke-width="2" stroke-miterlimit="10"/>
<path d="M61.5298 643.212C63.7735 643.212 65.5924 641.393 65.5924 639.149C65.5924 636.906 63.7735 635.087 61.5298 635.087C59.2861 635.087 57.4673 636.906 57.4673 639.149C57.4673 641.393 59.2861 643.212 61.5298 643.212Z" fill="white" stroke="white" stroke-miterlimit="10"/>
<path d="M88.1641 643.212C90.4078 643.212 92.2266 641.393 92.2266 639.149C92.2266 636.906 90.4078 635.087 88.1641 635.087C85.9204 635.087 84.1016 636.906 84.1016 639.149C84.1016 641.393 85.9204 643.212 88.1641 643.212Z" fill="white" stroke="white" stroke-miterlimit="10"/>
<path d="M72.3906 644.559H77.3237C80.3706 644.559 82.0288 647.212 80.1012 648.953L77.6346 651.192C76.2044 652.498 73.5306 652.498 72.1004 651.192L69.6339 648.953C67.6855 647.191 69.3437 644.559 72.3906 644.559Z" stroke="white" stroke-miterlimit="10"/>
<path d="M66.0276 660.312L74.7538 652.892L83.6872 661.224" stroke="white" stroke-miterlimit="10"/>
<path d="M86.8583 618.671C87.6874 619.002 88.6408 618.795 89.2005 618.111C90.7343 616.225 92.6619 613.551 88.0398 611.271C87.1692 610.836 86.6925 609.862 86.879 608.908C87.1899 607.354 86.651 605.219 81.3034 605.281C80.3707 605.302 79.5416 604.701 79.2721 603.809C78.671 601.819 77.1372 599.083 73.5721 602.959C73.0332 603.561 72.1834 603.809 71.4165 603.54C69.4681 602.877 65.9238 602.172 65.8201 605.633C65.7994 606.587 65.0532 607.374 64.0998 607.54C62.2758 607.872 59.9336 608.659 60.8249 610.628C61.1358 611.333 61.0114 612.162 60.514 612.743C59.1874 614.276 57.4878 618.484 61.8612 618.795C61.8612 618.816 73.3856 613.219 86.8583 618.671Z" stroke="white" stroke-width="2" stroke-miterlimit="10"/>
<path opacity="0.35" d="M336.812 18.6692C336.812 17.4726 337.782 16.5026 338.979 16.5026H355.469C356.666 16.5026 357.636 17.4726 357.636 18.6692V24.6692C357.636 25.8658 356.666 26.8359 355.469 26.8359H338.979C337.782 26.8359 336.812 25.8658 336.812 24.6692V18.6692Z" stroke="black"/>
<path opacity="0.4" d="M359.128 19.6692V23.6692C359.926 23.3304 360.445 22.5423 360.445 21.6692C360.445 20.7961 359.926 20.008 359.128 19.6692Z" fill="black"/>
<path d="M338.296 19.3359C338.296 18.5995 338.893 18.0026 339.629 18.0026H354.819C355.555 18.0026 356.152 18.5995 356.152 19.3359V24.0026C356.152 24.7389 355.555 25.3359 354.819 25.3359H339.629C338.893 25.3359 338.296 24.7389 338.296 24.0026V19.3359Z" fill="black"/>
<path fill-rule="evenodd" clip-rule="evenodd" d="M323.744 18.2773C325.942 18.2774 328.056 19.1289 329.649 20.6557C329.769 20.7735 329.961 20.772 330.079 20.6523L331.226 19.4857C331.286 19.4249 331.319 19.3427 331.318 19.2571C331.318 19.1715 331.284 19.0897 331.223 19.0297C327.042 14.9901 320.445 14.9901 316.264 19.0297C316.203 19.0896 316.169 19.1715 316.168 19.257C316.168 19.3426 316.201 19.4249 316.261 19.4857L317.408 20.6523C317.526 20.7722 317.718 20.7737 317.838 20.6557C319.431 19.1288 321.545 18.2773 323.744 18.2773ZM323.744 22.073C324.951 22.0729 326.116 22.5255 327.011 23.3427C327.132 23.4587 327.323 23.4562 327.441 23.337L328.587 22.1704C328.647 22.1092 328.68 22.0261 328.68 21.9399C328.679 21.8536 328.644 21.7713 328.582 21.7114C325.856 19.155 321.634 19.155 318.908 21.7114C318.846 21.7713 318.811 21.8537 318.81 21.9399C318.809 22.0262 318.843 22.1092 318.903 22.1704L320.049 23.337C320.167 23.4562 320.357 23.4587 320.478 23.3427C321.373 22.526 322.537 22.0735 323.744 22.073ZM326.038 24.6268C326.04 24.7133 326.006 24.7967 325.945 24.8573L323.964 26.873C323.906 26.9323 323.826 26.9656 323.744 26.9656C323.661 26.9656 323.582 26.9323 323.524 26.873L321.542 24.8573C321.481 24.7967 321.447 24.7133 321.449 24.6268C321.451 24.5403 321.488 24.4583 321.552 24.4003C322.817 23.3215 324.67 23.3215 325.936 24.4003C325.999 24.4584 326.037 24.5403 326.038 24.6268Z" fill="black"/>
<path fill-rule="evenodd" clip-rule="evenodd" d="M312.189 16.3359H311.197C310.65 16.3359 310.205 16.7837 310.205 17.3359V26.0026C310.205 26.5549 310.65 27.0026 311.197 27.0026H312.189C312.737 27.0026 313.181 26.5549 313.181 26.0026V17.3359C313.181 16.7837 312.737 16.3359 312.189 16.3359ZM306.568 18.6693H307.56C308.108 18.6693 308.552 19.117 308.552 19.6693V26.0026C308.552 26.5549 308.108 27.0026 307.56 27.0026H306.568C306.02 27.0026 305.576 26.5549 305.576 26.0026V19.6693C305.576 19.117 306.02 18.6693 306.568 18.6693ZM302.931 21.0026H301.939C301.391 21.0026 300.947 21.4503 300.947 22.0026V26.0026C300.947 26.5549 301.391 27.0026 301.939 27.0026H302.931C303.479 27.0026 303.923 26.5549 303.923 26.0026V22.0026C303.923 21.4503 303.479 21.0026 302.931 21.0026ZM298.301 23.0026H297.309C296.762 23.0026 296.317 23.4503 296.317 24.0026V26.0026C296.317 26.5549 296.762 27.0026 297.309 27.0026H298.301C298.849 27.0026 299.293 26.5549 299.293 26.0026V24.0026C299.293 23.4503 298.849 23.0026 298.301 23.0026Z" fill="black"/>
<path d="M38.4455 22.8765C37.9133 23.355 37.3176 23.5942 36.6584 23.5942C35.6916 23.5942 34.925 23.2671 34.3586 22.6128C33.7922 21.9585 33.509 21.0845 33.509 19.9907C33.509 19.3071 33.6677 18.6724 33.9851 18.0864C34.3025 17.5005 34.7468 17.0366 35.3181 16.6948C35.8943 16.353 36.529 16.1821 37.2224 16.1821C37.9255 16.1821 38.5603 16.3604 39.1267 16.7168C39.698 17.0684 40.1423 17.5688 40.4597 18.2183C40.7771 18.8628 40.9406 19.6074 40.9504 20.4521V21.397C40.9504 22.5737 40.7185 23.5942 40.2546 24.4585C39.7956 25.3228 39.1389 25.9868 38.2844 26.4507C37.4299 26.9146 36.4338 27.1465 35.2961 27.1465H35.1423V25.1689L35.6111 25.1616C37.3103 25.0786 38.2551 24.3169 38.4455 22.8765ZM37.3249 21.8145C37.862 21.8145 38.2478 21.5825 38.4821 21.1187V20.0933C38.4821 19.4097 38.3674 18.9043 38.1379 18.5771C37.9084 18.25 37.5984 18.0864 37.2077 18.0864C36.8611 18.0864 36.5705 18.272 36.3361 18.6431C36.1018 19.0142 35.9846 19.4634 35.9846 19.9907C35.9846 20.5474 36.1042 20.9917 36.3435 21.3237C36.5827 21.6509 36.9099 21.8145 37.3249 21.8145ZM43.5435 24.605C43.9341 24.605 44.2588 24.7222 44.5176 24.9565C44.7764 25.186 44.9058 25.4814 44.9058 25.8428C44.9058 26.2041 44.7764 26.502 44.5176 26.7363C44.2588 26.9658 43.9341 27.0806 43.5435 27.0806C43.148 27.0806 42.8208 26.9634 42.562 26.729C42.3081 26.4946 42.1812 26.1992 42.1812 25.8428C42.1812 25.4863 42.3081 25.1909 42.562 24.9565C42.8208 24.7222 43.148 24.605 43.5435 24.605ZM43.5435 18.7603C43.9341 18.7603 44.2588 18.8774 44.5176 19.1118C44.7764 19.3413 44.9058 19.6367 44.9058 19.998C44.9058 20.3594 44.7764 20.6572 44.5176 20.8916C44.2588 21.1211 43.9341 21.2358 43.5435 21.2358C43.148 21.2358 42.8208 21.1187 42.562 20.8843C42.3081 20.6499 42.1812 20.3545 42.1812 19.998C42.1812 19.6416 42.3081 19.3462 42.562 19.1118C42.8208 18.8774 43.148 18.7603 43.5435 18.7603ZM51.6517 27H49.1761V19.1191L46.7444 19.8296V17.9546L51.4246 16.3359H51.6517V27ZM61.0856 22.8325H62.1695V24.7368H61.0856V27H58.6173V24.7368H54.4938L54.3473 23.228L58.6173 16.3579V16.3359H61.0856V22.8325ZM56.6984 22.8325H58.6173V19.5513L58.4635 19.8003L56.6984 22.8325Z" fill="black"/>
<path d="M117.787 691V665.406H125.345C127.607 665.406 129.611 665.91 131.357 666.918C133.115 667.926 134.474 669.355 135.435 671.207C136.396 673.059 136.877 675.18 136.877 677.57V678.854C136.877 681.279 136.39 683.412 135.418 685.252C134.457 687.092 133.08 688.51 131.287 689.506C129.506 690.502 127.461 691 125.152 691H117.787ZM122.234 668.992V687.449H125.134C127.466 687.449 129.254 686.723 130.496 685.27C131.75 683.805 132.388 681.707 132.412 678.977V677.553C132.412 674.775 131.808 672.654 130.601 671.189C129.394 669.725 127.642 668.992 125.345 668.992H122.234ZM139.373 681.314C139.373 679.451 139.743 677.775 140.481 676.287C141.219 674.787 142.256 673.639 143.592 672.842C144.928 672.033 146.463 671.629 148.198 671.629C150.764 671.629 152.844 672.455 154.438 674.107C156.043 675.76 156.911 677.951 157.039 680.682L157.057 681.684C157.057 683.559 156.694 685.234 155.967 686.711C155.252 688.188 154.221 689.33 152.873 690.139C151.538 690.947 149.991 691.352 148.233 691.352C145.549 691.352 143.399 690.461 141.782 688.68C140.176 686.887 139.373 684.502 139.373 681.525V681.314ZM143.645 681.684C143.645 683.641 144.049 685.176 144.858 686.289C145.666 687.391 146.791 687.941 148.233 687.941C149.674 687.941 150.793 687.379 151.59 686.254C152.399 685.129 152.803 683.482 152.803 681.314C152.803 679.393 152.387 677.869 151.555 676.744C150.735 675.619 149.616 675.057 148.198 675.057C146.803 675.057 145.696 675.613 144.875 676.727C144.055 677.828 143.645 679.48 143.645 681.684ZM171.472 689.137C170.218 690.613 168.437 691.352 166.128 691.352C164.066 691.352 162.501 690.748 161.435 689.541C160.38 688.334 159.853 686.588 159.853 684.303V671.98H164.124V684.25C164.124 686.664 165.126 687.871 167.13 687.871C169.204 687.871 170.605 687.127 171.331 685.639V671.98H175.603V691H171.577L171.472 689.137ZM195.924 681.684C195.924 684.637 195.262 686.986 193.937 688.732C192.625 690.479 190.814 691.352 188.506 691.352C186.279 691.352 184.545 690.549 183.303 688.943L183.092 691H179.224V664H183.496V673.809C184.726 672.355 186.385 671.629 188.471 671.629C190.791 671.629 192.613 672.49 193.937 674.213C195.262 675.936 195.924 678.344 195.924 681.438V681.684ZM191.652 681.314C191.652 679.252 191.289 677.705 190.562 676.674C189.836 675.643 188.781 675.127 187.398 675.127C185.547 675.127 184.246 675.936 183.496 677.553V685.393C184.258 687.045 185.57 687.871 187.433 687.871C188.769 687.871 189.801 687.373 190.527 686.377C191.254 685.381 191.629 683.875 191.652 681.859V681.314ZM203.342 691H199.071V664H203.342V691ZM215.665 691.352C212.958 691.352 210.761 690.502 209.074 688.803C207.398 687.092 206.56 684.818 206.56 681.982V681.455C206.56 679.557 206.923 677.863 207.65 676.375C208.388 674.875 209.419 673.709 210.743 672.877C212.068 672.045 213.544 671.629 215.173 671.629C217.763 671.629 219.761 672.455 221.167 674.107C222.585 675.76 223.294 678.098 223.294 681.121V682.844H210.866C210.995 684.414 211.517 685.656 212.431 686.57C213.357 687.484 214.517 687.941 215.911 687.941C217.868 687.941 219.462 687.15 220.693 685.568L222.995 687.766C222.234 688.902 221.214 689.787 219.937 690.42C218.671 691.041 217.247 691.352 215.665 691.352ZM215.156 675.057C213.984 675.057 213.034 675.467 212.308 676.287C211.593 677.107 211.136 678.25 210.937 679.715H219.075V679.398C218.982 677.969 218.601 676.891 217.933 676.164C217.265 675.426 216.339 675.057 215.156 675.057ZM241.964 687.941C243.03 687.941 243.915 687.631 244.618 687.01C245.321 686.389 245.696 685.621 245.743 684.707H249.768C249.721 685.891 249.352 686.998 248.661 688.029C247.969 689.049 247.032 689.857 245.848 690.455C244.665 691.053 243.387 691.352 242.016 691.352C239.356 691.352 237.247 690.49 235.688 688.768C234.13 687.045 233.35 684.666 233.35 681.631V681.191C233.35 678.297 234.124 675.982 235.671 674.248C237.217 672.502 239.327 671.629 241.999 671.629C244.26 671.629 246.1 672.291 247.518 673.615C248.948 674.928 249.698 676.656 249.768 678.801H245.743C245.696 677.711 245.321 676.814 244.618 676.111C243.926 675.408 243.042 675.057 241.964 675.057C240.581 675.057 239.514 675.561 238.764 676.568C238.014 677.564 237.634 679.082 237.622 681.121V681.807C237.622 683.869 237.991 685.41 238.729 686.43C239.479 687.438 240.557 687.941 241.964 687.941ZM256.484 674.055C257.878 672.438 259.642 671.629 261.775 671.629C265.83 671.629 267.886 673.943 267.945 678.572V691H263.673V678.73C263.673 677.418 263.386 676.492 262.812 675.953C262.249 675.402 261.417 675.127 260.316 675.127C258.605 675.127 257.328 675.889 256.484 677.412V691H252.212V664H256.484V674.055ZM279.934 691.352C277.227 691.352 275.029 690.502 273.342 688.803C271.666 687.092 270.828 684.818 270.828 681.982V681.455C270.828 679.557 271.192 677.863 271.918 676.375C272.656 674.875 273.688 673.709 275.012 672.877C276.336 672.045 277.813 671.629 279.442 671.629C282.031 671.629 284.029 672.455 285.436 674.107C286.854 675.76 287.563 678.098 287.563 681.121V682.844H275.135C275.264 684.414 275.785 685.656 276.699 686.57C277.625 687.484 278.785 687.941 280.18 687.941C282.137 687.941 283.731 687.15 284.961 685.568L287.264 687.766C286.502 688.902 285.483 689.787 284.205 690.42C282.94 691.041 281.516 691.352 279.934 691.352ZM279.424 675.057C278.252 675.057 277.303 675.467 276.576 676.287C275.861 677.107 275.404 678.25 275.205 679.715H283.344V679.398C283.25 677.969 282.869 676.891 282.201 676.164C281.533 675.426 280.608 675.057 279.424 675.057ZM298.55 691.352C295.843 691.352 293.645 690.502 291.958 688.803C290.282 687.092 289.444 684.818 289.444 681.982V681.455C289.444 679.557 289.807 677.863 290.534 676.375C291.272 674.875 292.304 673.709 293.628 672.877C294.952 672.045 296.429 671.629 298.057 671.629C300.647 671.629 302.645 672.455 304.052 674.107C305.47 675.76 306.179 678.098 306.179 681.121V682.844H293.751C293.88 684.414 294.401 685.656 295.315 686.57C296.241 687.484 297.401 687.941 298.796 687.941C300.753 687.941 302.347 687.15 303.577 685.568L305.88 687.766C305.118 688.902 304.099 689.787 302.821 690.42C301.556 691.041 300.132 691.352 298.55 691.352ZM298.04 675.057C296.868 675.057 295.919 675.467 295.192 676.287C294.477 677.107 294.02 678.25 293.821 679.715H301.96V679.398C301.866 677.969 301.485 676.891 300.817 676.164C300.149 675.426 299.224 675.057 298.04 675.057ZM319.451 685.832C319.451 685.07 319.134 684.49 318.502 684.092C317.88 683.693 316.843 683.342 315.39 683.037C313.937 682.732 312.724 682.346 311.752 681.877C309.619 680.846 308.552 679.352 308.552 677.395C308.552 675.754 309.244 674.383 310.627 673.281C312.009 672.18 313.767 671.629 315.9 671.629C318.173 671.629 320.007 672.191 321.402 673.316C322.808 674.441 323.511 675.9 323.511 677.693H319.24C319.24 676.873 318.935 676.193 318.326 675.654C317.716 675.104 316.908 674.828 315.9 674.828C314.962 674.828 314.195 675.045 313.597 675.479C313.011 675.912 312.718 676.492 312.718 677.219C312.718 677.875 312.994 678.385 313.545 678.748C314.095 679.111 315.209 679.48 316.884 679.855C318.56 680.219 319.873 680.658 320.822 681.174C321.783 681.678 322.492 682.287 322.949 683.002C323.418 683.717 323.652 684.584 323.652 685.604C323.652 687.314 322.943 688.703 321.525 689.77C320.107 690.824 318.25 691.352 315.953 691.352C314.394 691.352 313.005 691.07 311.787 690.508C310.568 689.945 309.619 689.172 308.939 688.188C308.259 687.203 307.92 686.143 307.92 685.006H312.068C312.127 686.014 312.507 686.793 313.211 687.344C313.914 687.883 314.845 688.152 316.005 688.152C317.13 688.152 317.986 687.941 318.572 687.52C319.158 687.086 319.451 686.523 319.451 685.832ZM335.043 691.352C332.336 691.352 330.139 690.502 328.451 688.803C326.776 687.092 325.938 684.818 325.938 681.982V681.455C325.938 679.557 326.301 677.863 327.028 676.375C327.766 674.875 328.797 673.709 330.121 672.877C331.446 672.045 332.922 671.629 334.551 671.629C337.141 671.629 339.139 672.455 340.545 674.107C341.963 675.76 342.672 678.098 342.672 681.121V682.844H330.244C330.373 684.414 330.895 685.656 331.809 686.57C332.735 687.484 333.895 687.941 335.289 687.941C337.246 687.941 338.84 687.15 340.071 685.568L342.373 687.766C341.612 688.902 340.592 689.787 339.315 690.42C338.049 691.041 336.625 691.352 335.043 691.352ZM334.534 675.057C333.362 675.057 332.412 675.467 331.686 676.287C330.971 677.107 330.514 678.25 330.315 679.715H338.453V679.398C338.36 677.969 337.979 676.891 337.311 676.164C336.643 675.426 335.717 675.057 334.534 675.057Z" fill="white"/>
</g>
<defs>
<clipPath id="clip0_308_50">
<rect width="375" height="812" rx="40" fill="white"/>
</clipPath>
</defs>
</svg>
