<?xml version="1.0" encoding="utf-8"?>
<!-- Generator: Adobe Illustrator 25.2.0, SVG Export Plug-In . SVG Version: 6.00 Build 0)  -->
<svg version="1.1" id="圖層_1" xmlns="http://www.w3.org/2000/svg" xmlns:xlink="http://www.w3.org/1999/xlink" x="0px" y="0px"
	 viewBox="0 0 100 100" style="enable-background:new 0 0 100 100;" xml:space="preserve">
<style type="text/css">
	.st0{stroke:#FFFFFF;stroke-miterlimit:10;}
	.st1{fill:#E94925;stroke:#040000;stroke-width:2;stroke-miterlimit:10;}
	.st2{fill:#C1E4EF;stroke:#040000;stroke-width:2;stroke-miterlimit:10;}
	.st3{fill:#FFFFFF;}
	.st4{fill:#7A524B;}
	.st5{fill:#5F4641;}
	.st6{fill:#F6E9BA;}
	.st7{fill:#2C3C50;}
	.st8{fill:#ECC644;stroke:#000000;stroke-miterlimit:10;}
	.st9{fill:#DA4E6E;stroke:#000000;stroke-miterlimit:10;}
	.st10{fill:none;stroke:#000000;stroke-miterlimit:10;}
	.st11{fill:#FFFFFF;stroke:#000000;stroke-miterlimit:10;}
	.st12{fill:#6A4B2E;stroke:#000000;stroke-width:2;stroke-miterlimit:10;}
	.st13{fill:#E22925;stroke:#000000;stroke-width:2;stroke-miterlimit:10;}
	.st14{fill:#6F401E;stroke:#000000;stroke-width:2;stroke-miterlimit:10;}
	.st15{fill:none;stroke:#040000;stroke-width:2;stroke-miterlimit:10;}
	.st16{fill:#040000;stroke:#040000;stroke-miterlimit:10;}
	.st17{fill:#906526;stroke:#000000;stroke-width:2;stroke-miterlimit:10;}
	.st18{fill:#D3AF7C;stroke:#000000;stroke-width:2;stroke-miterlimit:10;}
	.st19{stroke:#000000;stroke-miterlimit:10;}
	.st20{fill:none;stroke:#000000;stroke-width:2;stroke-miterlimit:10;}
	.st21{fill:#F1DBBD;stroke:#000000;stroke-width:2;stroke-miterlimit:10;}
	.st22{fill:#ECA368;stroke:#000000;stroke-width:2;stroke-miterlimit:10;}
	.st23{fill:none;stroke:#FFFFFF;stroke-width:0.5;stroke-miterlimit:10;}
	.st24{fill:#ECED81;stroke:#000000;stroke-miterlimit:10;}
	.st25{fill:#EB5A41;stroke:#000000;stroke-miterlimit:10;}
	.st26{fill:#EE7C62;stroke:#000000;stroke-miterlimit:10;}
	.st27{fill:none;stroke:#C55643;stroke-width:0.5;stroke-miterlimit:10;}
	.st28{fill:#040000;}
	.st29{fill:#ECED81;stroke:#000000;stroke-width:2;stroke-miterlimit:10;}
	.st30{fill:#B33F2D;}
	.st31{fill:#FFFFFF;stroke:#000000;stroke-width:2;stroke-miterlimit:10;}
	.st32{fill:#BB8682;stroke:#000000;stroke-miterlimit:10;}
	.st33{fill:none;stroke:#040000;stroke-width:0.5;stroke-miterlimit:10;}
	.st34{fill:#B5B5B5;stroke:#000000;stroke-width:2;stroke-miterlimit:10;}
	.st35{fill:#FFFFFF;stroke:#040000;stroke-width:2;stroke-miterlimit:10;}
	.st36{fill:#E73483;stroke:#040000;stroke-width:2;stroke-miterlimit:10;}
	.st37{fill:#DBA8CC;stroke:#040000;stroke-width:2;stroke-miterlimit:10;}
	.st38{fill:#814537;stroke:#040000;stroke-width:2;stroke-miterlimit:10;}
	.st39{fill:#D54426;stroke:#040000;stroke-width:2;stroke-miterlimit:10;}
	.st40{fill:#C68A6B;}
	.st41{fill:#B44522;}
	.st42{fill:#643219;stroke:#000000;stroke-width:2;stroke-miterlimit:10;}
	.st43{fill:#423052;stroke:#000000;stroke-width:2;stroke-miterlimit:10;}
	.st44{fill:#6A567A;}
	.st45{fill:#8C709A;stroke:#000000;stroke-width:2;stroke-miterlimit:10;}
	.st46{fill:#9E87AD;}
	.st47{fill:#645293;stroke:#000000;stroke-width:2;stroke-miterlimit:10;}
	.st48{fill:#8B81B1;}
	.st49{fill:#533B62;stroke:#000000;stroke-width:2;stroke-miterlimit:10;}
	.st50{fill:#3E9C41;stroke:#000000;stroke-width:2;stroke-miterlimit:10;}
	.st51{fill:#81B14A;stroke:#000000;stroke-width:2;stroke-miterlimit:10;}
	.st52{fill:#55A284;stroke:#000000;stroke-width:2;stroke-miterlimit:10;}
	.st53{fill:#F0BE7F;stroke:#000000;stroke-width:2;stroke-miterlimit:10;}
	.st54{fill:none;stroke:#DE7860;stroke-width:2;stroke-miterlimit:10;}
	.st55{fill:url(#SVGID_1_);stroke:#000000;stroke-width:2;stroke-miterlimit:10;}
	.st56{fill:url(#SVGID_2_);stroke:#000000;stroke-width:2;stroke-miterlimit:10;}
	.st57{fill:url(#SVGID_3_);stroke:#000000;stroke-width:2;stroke-miterlimit:10;}
	.st58{fill:#FDF4EA;stroke:#040000;stroke-width:2;stroke-miterlimit:10;}
	.st59{fill:none;stroke:#C29C93;stroke-width:2;stroke-miterlimit:10;}
	.st60{fill:#392D4B;stroke:#000000;stroke-width:2;stroke-miterlimit:10;}
	.st61{fill:#685A7C;}
	.st62{fill:#65AD66;stroke:#040000;stroke-width:2;stroke-miterlimit:10;}
	.st63{fill:#94CC93;stroke:#040000;stroke-width:2;stroke-miterlimit:10;}
	.st64{fill:#DB655F;stroke:#000000;stroke-width:2;stroke-miterlimit:10;}
	.st65{fill:#D24F30;stroke:#000000;stroke-width:2;stroke-miterlimit:10;}
	.st66{fill:#EAB934;stroke:#000000;stroke-width:2;stroke-miterlimit:10;}
	.st67{fill:#F0EDE1;}
	.st68{fill:#F4CADE;}
	.st69{fill:#D9AE58;stroke:#040000;stroke-width:2;stroke-miterlimit:10;}
	.st70{fill:#F4E2C2;}
	.st71{fill:#F1DFC0;stroke:#040000;stroke-miterlimit:10;}
	.st72{fill:#C4E6F1;stroke:#000000;stroke-width:2;stroke-miterlimit:10;}
	.st73{fill:#E8DE80;stroke:#000000;stroke-width:2;stroke-miterlimit:10;}
	.st74{fill:#F7F5F5;stroke:#000000;stroke-width:2;stroke-miterlimit:10;}
	.st75{fill:#AEDCE5;}
	.st76{fill:#D7B995;}
	.st77{fill:#E8413B;stroke:#000000;stroke-width:2;stroke-miterlimit:10;}
	.st78{fill:none;stroke:#FFFFFF;stroke-miterlimit:10;}
	.st79{fill:#FFFFFF;stroke:#FFFFFF;stroke-miterlimit:10;}
	.st80{fill:none;stroke:#FFFFFF;stroke-width:0.75;stroke-miterlimit:10;}
	.st81{fill:#DBA8CC;}
	.st82{fill:none;stroke:#040000;stroke-miterlimit:10;}
	.st83{fill:none;stroke:#FFFFFF;stroke-width:2;stroke-miterlimit:10;}
	.st84{fill:#E8413B;}
</style>
<g>
	<path class="st31" d="M38.75,74.02V45.08c0,0,0-11.23,12.77-11.4c0,0,12.13,0.17,12.55,11.19l0.17,29.15H38.75z"/>
	<circle class="st19" cx="44.88" cy="45.47" r="1.96"/>
	<circle class="st19" cx="57.73" cy="45.47" r="1.96"/>
	<path class="st37" d="M38.75,74.02V45.97c0,0-1.62-8.94,9.89-13.53c0,0-15.01-2.14-14.25,9.72c0,0-9.77,2.55-2.87,10.09
		c0,0-8.11,4.34-0.41,10.09c0,0-5.93,7.2,4.31,11.24C35.42,73.58,36.86,74.19,38.75,74.02z"/>
	<path class="st36" d="M47.96,34.78c0.9,0.79,3.96,3.02,7.07-0.02c0.14-0.14,0.18-0.35,0.12-0.53l-2.8-7.94
		c-0.15-0.43-0.74-0.45-0.93-0.04l-3.59,7.95C47.76,34.4,47.8,34.63,47.96,34.78z"/>
	<path class="st31" d="M59.21,64.4c6.45-1.67,3.67-7.26,3.67-7.26c-3.2-8.12-11.2-7.6-11.2-7.6c-7.86-0.01-11.31,7.18-11.31,7.18
		c-3.08,7.31,4.33,7.86,4.33,7.86S54.62,65.59,59.21,64.4z"/>
	<circle class="st81" cx="49.25" cy="52.9" r="0.81"/>
	<circle class="st81" cx="54.18" cy="52.88" r="0.81"/>
	<path class="st82" d="M47.51,58.81c0,0,4.47,4.03,7.96,0"/>
	<path class="st31" d="M60.33,36.31c0,0,1.15-1.75,3.15-2.2c0,0,2.87-0.8,2.82,1.45c0,0-0.49,3.45-3.1,4.66
		C63.2,40.22,61.99,37.16,60.33,36.31z"/>
	<path class="st31" d="M42.23,36.31c0,0-1.15-1.75-3.15-2.2c0,0-2.87-0.8-2.82,1.45c0,0,0.49,3.45,3.1,4.66
		C39.36,40.22,40.57,37.16,42.23,36.31z"/>
</g>
</svg>
