<svg width="375" height="812" viewBox="0 0 375 812" fill="none" xmlns="http://www.w3.org/2000/svg">
<rect width="375" height="812" rx="40" fill="#FEA735"/>
<rect x="121" y="799" width="134" height="5" rx="2.5" fill="black"/>
<path d="M355.507 309.898L301.429 310.022C301.429 310.022 279.544 310.094 279.131 285.209C279.131 285.209 279.385 261.569 300.858 260.68L355.333 260.214" stroke="white" stroke-width="2" stroke-miterlimit="10"/>
<path d="M305.969 298.061C305.963 295.952 304.247 294.247 302.137 294.254C300.028 294.261 298.323 295.977 298.33 298.086C298.337 300.196 300.053 301.9 302.162 301.893C304.272 301.886 305.976 300.171 305.969 298.061Z" fill="white" stroke="white" stroke-width="2" stroke-miterlimit="10"/>
<path d="M305.887 273.019C305.88 270.91 304.165 269.205 302.055 269.212C299.946 269.219 298.241 270.935 298.248 273.045C298.255 275.154 299.971 276.859 302.08 276.852C304.19 276.845 305.894 275.129 305.887 273.019Z" fill="white" stroke="white" stroke-width="2" stroke-miterlimit="10"/>
<path d="M313.43 297.023L308.571 289.264C307.278 287.222 307.151 283.948 308.254 281.742L312.339 273.583C313.83 270.596 316.755 271.016 317.994 274.383L320.904 282.227C321.474 283.784 321.558 285.674 321.135 287.313L318.998 295.388C318.074 298.976 315.173 299.824 313.43 297.023Z" stroke="white" stroke-width="2" stroke-miterlimit="10"/>
<path d="M316.011 299.548C316.011 299.548 318.673 285.391 314.61 270.652" stroke="white" stroke-width="2" stroke-miterlimit="10"/>
<path d="M326.529 309.94C326.529 309.94 324.859 323.587 337.16 324.833C337.16 324.833 349.271 327.677 357.545 313.209C358.398 311.725 357.32 309.839 355.644 309.844L326.529 309.94V309.94Z" stroke="white" stroke-width="2" stroke-miterlimit="10"/>
<path d="M326.171 260.266C326.171 260.266 324.411 246.63 336.704 245.304C336.704 245.304 348.796 242.38 357.165 256.793C358.027 258.271 356.962 260.165 355.286 260.17L326.171 260.266V260.266Z" stroke="white" stroke-width="2" stroke-miterlimit="10"/>
<path d="M327.531 204.15L283.338 232.708C283.338 232.708 264.945 244.613 251.132 223.872C251.132 223.872 238.566 203.809 256.158 191.442L305.686 159.341" stroke="white" stroke-width="2" stroke-miterlimit="10"/>
<path d="M268.486 236.056C268.486 236.056 293.972 245.096 300.014 242.176C300.014 242.176 314.169 238.871 301.867 221.404C301.867 221.404 277.902 239.805 268.486 236.056Z" stroke="white" stroke-width="2" stroke-miterlimit="10"/>
<path d="M247.604 203.79C247.604 203.79 249.833 176.829 254.965 172.528C254.965 172.528 263.722 160.938 274.611 179.315C274.611 179.315 248.075 193.666 247.604 203.79Z" stroke="white" stroke-width="2" stroke-miterlimit="10"/>
<path d="M306.471 213.909C306.471 213.909 279.083 218.664 273.561 208.573C273.561 208.573 267.319 201.093 282.495 178.522C282.495 178.522 288.141 170.692 295.92 181.096L309.496 202.855C309.496 202.823 314.121 212.358 306.471 213.909Z" stroke="white" stroke-width="2" stroke-miterlimit="10"/>
<path d="M281.122 207.404L278.65 203.606C277.122 201.253 278.38 198.632 280.705 199.26L283.667 200.037C285.387 200.485 286.721 202.557 286.432 204.306L285.91 207.327C285.536 209.711 282.65 209.758 281.122 207.404Z" fill="white" stroke="white" stroke-width="2" stroke-miterlimit="10"/>
<path d="M296.808 206.644C296.808 206.644 302.312 203.796 299.408 198.705C299.408 198.705 297.845 196.224 294.761 195.703L285.752 201.526" stroke="white" stroke-width="2" stroke-miterlimit="10"/>
<path d="M285.619 189.318C285.619 189.318 289.94 185.886 293.392 189.509C293.388 189.256 296.529 193.264 293.728 196.576" stroke="white" stroke-width="2" stroke-miterlimit="10"/>
<path d="M277.497 218.563C275.378 218.597 273.688 220.342 273.722 222.461C273.756 224.58 275.502 226.27 277.62 226.236C279.739 226.201 281.429 224.456 281.395 222.337C281.361 220.218 279.615 218.528 277.497 218.563Z" fill="white" stroke="white" stroke-width="2" stroke-miterlimit="10"/>
<path d="M263.899 197.502C261.781 197.536 260.091 199.281 260.125 201.4C260.159 203.519 261.904 205.209 264.023 205.175C266.142 205.14 267.832 203.395 267.798 201.276C267.764 199.157 266.018 197.467 263.899 197.502Z" fill="white" stroke="white" stroke-width="2" stroke-miterlimit="10"/>
<path d="M344.663 410.986L295.075 383.991C295.075 383.991 275.812 373.5 287.448 351.463C287.448 351.463 299.052 330.826 318.325 340.392L362.959 364.365" stroke="#FCF5EF" stroke-width="2" stroke-miterlimit="10"/>
<path d="M313.102 367.5L314.795 364.405C315.84 362.514 318.06 362.351 318.493 364.156L319.061 366.455C319.387 367.8 318.461 369.482 317.164 369.941L314.904 370.737C313.176 371.338 312.088 369.395 313.102 367.5Z" fill="#FCF5EF" stroke="#FCF5EF" stroke-width="2" stroke-miterlimit="10"/>
<path d="M329.423 336.261C329.423 336.261 321.791 341.903 322.035 351.825" stroke="#FCF5EF" stroke-width="2" stroke-miterlimit="10"/>
<path d="M339.95 341.353C339.95 341.353 331.008 344.484 328.321 354.072" stroke="#FCF5EF" stroke-width="2" stroke-miterlimit="10"/>
<path d="M296.78 396.217C296.78 396.217 297.379 386.742 305.85 381.579" stroke="#FCF5EF" stroke-width="2" stroke-miterlimit="10"/>
<path d="M306.783 402.27C306.783 402.27 304.577 393.051 311.138 385.595" stroke="#FCF5EF" stroke-width="2" stroke-miterlimit="10"/>
<path d="M313.687 354.274C314.7 352.413 314.038 350.096 312.208 349.1C310.377 348.103 308.072 348.804 307.058 350.665C306.045 352.526 306.707 354.843 308.537 355.839C310.368 356.836 312.673 356.135 313.687 354.274Z" fill="#FCF5EF" stroke="#FCF5EF" stroke-width="2" stroke-miterlimit="10"/>
<path d="M303.517 372.94C304.531 371.079 303.869 368.762 302.038 367.765C300.208 366.768 297.903 367.469 296.889 369.33C295.876 371.191 296.538 373.508 298.368 374.505C300.199 375.502 302.504 374.801 303.517 372.94Z" fill="#FCF5EF" stroke="#FCF5EF" stroke-width="2" stroke-miterlimit="10"/>
<path d="M294.494 342.275C294.494 342.275 294.501 334.074 300.595 327.363C300.595 327.363 310.442 328.611 312.434 338.317C312.434 338.317 304.597 336.787 294.494 342.275Z" stroke="#FCF5EF" stroke-width="2" stroke-miterlimit="10"/>
<path d="M283.204 363.235C283.204 363.235 276.311 367.717 273.976 376.451C273.976 376.451 280.389 384.043 289.605 380.464C289.608 380.432 284.07 374.696 283.204 363.235Z" stroke="#FCF5EF" stroke-width="2" stroke-miterlimit="10"/>
<path d="M327.702 360.353C327.702 360.353 331.472 371.537 319.958 368.95C319.646 368.883 319.414 369.239 319.613 369.454C321.104 371.219 327.035 377.99 317.106 381.105" stroke="#FCF5EF" stroke-width="2" stroke-miterlimit="10"/>
<path d="M102.479 234.232C106.317 239.855 106.066 248.425 101.137 253.515C95.4948 259.32 86.2355 259.433 80.431 253.791C74.6264 248.149 74.5133 238.889 80.1555 233.085C80.7133 232.501 83.6979 231.229 84.3537 230.77" stroke="#FCF5EF" stroke-width="2" stroke-miterlimit="10"/>
<path d="M118.436 194.891C119.047 193.831 121.047 191.09 121.915 190.182C127.557 184.377 136.816 184.264 142.62 189.906C148.425 195.549 148.538 204.808 142.896 210.612C137.254 216.417 127.995 216.53 122.19 210.888" stroke="#FCF5EF" stroke-width="2" stroke-miterlimit="10"/>
<path d="M81.3627 158.456L116.678 192.837C116.678 192.837 132.373 208.121 115.24 226.206C115.24 226.206 98.4877 242.918 82.4951 228.528L45.8002 194.844" stroke="#FCF5EF" stroke-width="2" stroke-miterlimit="10"/>
<path d="M108.414 197.756C106.02 197.81 104.122 199.795 104.176 202.19C104.23 204.585 106.215 206.482 108.609 206.428C111.004 206.374 112.902 204.389 112.848 201.995C112.794 199.6 110.809 197.703 108.414 197.756Z" fill="#FCF5EF" stroke="#FCF5EF" stroke-miterlimit="10"/>
<path d="M90.9289 215.722C88.5343 215.776 86.6367 217.761 86.6906 220.155C86.7444 222.55 88.7293 224.448 91.124 224.394C93.5186 224.34 95.4162 222.355 95.3623 219.96C95.3084 217.566 93.3235 215.668 90.9289 215.722Z" fill="#FCF5EF" stroke="#FCF5EF" stroke-miterlimit="10"/>
<path d="M68.6303 228.365C68.6303 228.365 77.4991 224.993 79.9467 215.359" stroke="#FCF5EF" stroke-width="2" stroke-miterlimit="10"/>
<path d="M59.8608 220.632C59.8608 220.632 69.3312 220.039 74.5007 211.549" stroke="#FCF5EF" stroke-width="2" stroke-miterlimit="10"/>
<path d="M116.218 179.462C116.218 179.462 113.089 188.414 103.507 191.104" stroke="#FCF5EF" stroke-width="2" stroke-miterlimit="10"/>
<path d="M108.255 170.919C108.255 170.919 107.897 180.411 99.5498 185.8" stroke="#FCF5EF" stroke-width="2" stroke-miterlimit="10"/>
<path d="M93.8426 202.835L91.3938 205.364C89.8746 206.921 87.7074 206.462 87.7604 204.589L87.8338 202.209C87.8975 200.812 89.199 199.45 90.5932 199.387L92.9688 199.239C94.8378 199.133 95.3618 201.278 93.8426 202.835Z" fill="white" stroke="#FCF5EF" stroke-width="2" stroke-miterlimit="10"/>
<path d="M89.6727 189.48L88.931 200.218L77.4294 200.762" stroke="#FCF5EF" stroke-width="2" stroke-miterlimit="10"/>
<path d="M17.0034 314.351L73.4185 314.022C94.7459 313.209 95.075 289.734 95.075 289.734C94.7459 265.019 73.0121 265.019 73.0121 265.019L46.4998 265.019" stroke="white" stroke-width="2" stroke-miterlimit="10"/>
<path d="M68.4833 276.883C68.4833 278.978 70.1816 280.676 72.2766 280.676C74.3715 280.676 76.0698 278.978 76.0698 276.883C76.0698 274.788 74.3715 273.09 72.2766 273.09C70.1816 273.09 68.4833 274.788 68.4833 276.883Z" fill="white" stroke="white" stroke-miterlimit="10"/>
<path d="M68.4833 301.752C68.4833 303.847 70.1816 305.545 72.2766 305.545C74.3715 305.545 76.0698 303.847 76.0698 301.752C76.0698 299.657 74.3715 297.959 72.2766 297.959C70.1816 297.959 68.4833 299.657 68.4833 301.752Z" fill="white" stroke="white" stroke-miterlimit="10"/>
<path d="M17.0809 314.37C17.0809 314.37 15.3778 327.918 27.5898 329.195C27.5898 329.195 39.6082 332.059 47.8721 317.719C48.7237 316.248 47.6592 314.37 45.9948 314.37L17.0809 314.37Z" stroke="white" stroke-width="2" stroke-miterlimit="10"/>
<path d="M17.0809 265.058C17.0809 265.058 15.3778 251.511 27.5898 250.233C27.5898 250.233 39.6082 247.369 47.8721 261.71C48.7237 263.181 47.6592 265.058 45.9948 265.058L17.0809 265.058Z" stroke="white" stroke-width="2" stroke-miterlimit="10"/>
<path d="M95.075 284.818C95.075 284.818 105.236 284.334 108.042 289.714C108.042 289.714 104.423 295.443 95.075 294.533C95.075 294.533 96.6039 290.798 95.075 284.818Z" stroke="white" stroke-width="2" stroke-miterlimit="10"/>
<path d="M54.4909 306.61C54.4909 309.645 56.9517 312.106 59.9873 312.106C63.0228 312.106 65.4836 309.645 65.4836 306.61C65.4836 303.574 63.0228 301.114 59.9873 301.114C56.9517 301.114 54.4909 303.574 54.4909 306.61Z" fill="white"/>
<path d="M54.4909 272.49C54.4909 275.525 56.9517 277.986 59.9873 277.986C63.0228 277.986 65.4836 275.525 65.4836 272.49C65.4836 269.454 63.0228 266.994 59.9873 266.994C56.9517 266.994 54.4909 269.454 54.4909 272.49Z" fill="white"/>
<path d="M61.0518 277.889L65.8514 285.611C67.1287 287.644 67.2449 290.895 66.1417 293.082L62.0582 301.172C60.568 304.133 57.6649 303.707 56.4457 300.359L53.5814 292.559C53.0201 291.011 52.9427 289.134 53.3685 287.508L55.5167 279.496C56.465 275.935 59.3293 275.103 61.0518 277.889Z" stroke="white" stroke-miterlimit="10"/>
<path d="M58.497 275.354C58.497 275.354 55.8069 289.405 59.7937 304.055" stroke="white" stroke-width="0.5" stroke-miterlimit="10"/>
<path d="M20.3743 378.928L70.7204 349.861C70.7204 349.861 90.2637 338.577 103.39 360.63C103.39 360.63 115.282 381.91 96.5261 393.714L45.9679 423.298" stroke="white" stroke-width="2" stroke-miterlimit="10"/>
<path d="M74.2163 362.507C75.3039 364.391 77.7127 365.037 79.5965 363.949C81.4803 362.861 82.1258 360.452 81.0382 358.569C79.9505 356.685 77.5417 356.039 75.6579 357.127C73.7741 358.215 73.1287 360.623 74.2163 362.507Z" fill="white" stroke="white" stroke-miterlimit="10"/>
<path d="M87.1274 384.87C88.215 386.754 90.6238 387.399 92.5077 386.312C94.3915 385.224 95.0369 382.815 93.9493 380.931C92.8617 379.048 90.4529 378.402 88.569 379.49C86.6852 380.577 86.0398 382.986 87.1274 384.87Z" fill="white" stroke="white" stroke-miterlimit="10"/>
<path d="M104.391 386.759C104.391 386.759 110.428 393.437 105.191 402.494C105.191 402.494 96.8213 415.285 87.808 410.163C87.808 410.163 81.9891 405.912 86.9599 399.933C86.9325 399.925 98.1481 394.192 104.391 386.759Z" stroke="white" stroke-width="2" stroke-miterlimit="10"/>
<path d="M80.9204 346.107C80.9204 346.107 78.1555 337.54 67.6945 337.546C67.6945 337.546 52.4317 338.4 52.3607 348.766C52.3607 348.766 53.1329 355.931 60.7965 354.616C60.7891 354.643 71.3617 347.797 80.9204 346.107Z" stroke="white" stroke-width="2" stroke-miterlimit="10"/>
<path d="M78.3401 372.262L80.7314 376.404C82.2084 378.962 80.7847 381.64 78.3884 380.866L75.3133 379.88C73.5236 379.312 72.2275 377.067 72.6306 375.234L73.3144 372.078C73.8318 369.598 76.8732 369.721 78.3401 372.262Z" fill="white" stroke="white" stroke-miterlimit="10"/>
<path d="M62.0293 374.555L72.4996 378.302L69.8067 389.835" stroke="white" stroke-width="2" stroke-miterlimit="10"/>
<path d="M107.262 373.245C107.262 373.245 116.898 377.636 115.791 366.998C115.791 366.998 127.107 366.985 120.504 357.478C120.504 357.478 123.494 348.791 115.169 349.282C115.169 349.282 113.419 340.222 108.118 344.906C108.118 344.906 102.168 340.87 100.45 345.853C100.45 345.853 93.7808 344.83 94.985 350.493C95.0125 350.5 105.795 358.406 107.262 373.245Z" stroke="white" stroke-width="2" stroke-miterlimit="10"/>
<path d="M121.627 467.93L137.251 416.142C137.251 416.142 143.313 396.045 166.257 402.635C166.257 402.635 187.872 409.488 182.675 429.435L167.242 481.691" stroke="white" stroke-width="2" stroke-miterlimit="10"/>
<path d="M146.952 423.656C148.889 424.241 150.933 423.144 151.518 421.207C152.102 419.27 151.005 417.226 149.068 416.641C147.131 416.057 145.087 417.154 144.503 419.091C143.918 421.028 145.015 423.072 146.952 423.656Z" fill="white" stroke="white" stroke-miterlimit="10"/>
<path d="M169.947 430.593C171.884 431.178 173.928 430.081 174.513 428.144C175.097 426.207 174 424.163 172.063 423.578C170.126 422.994 168.082 424.091 167.498 426.028C166.913 427.965 168.01 430.009 169.947 430.593Z" fill="white" stroke="white" stroke-miterlimit="10"/>
<path d="M121.628 467.93L136.77 417.734C136.77 417.734 136.154 402.471 159.229 400.471C159.229 400.471 136.068 386.928 131.025 408.562C131.025 408.562 112.165 407.851 120.442 425.069C120.442 425.069 103.586 428.457 114.261 442.904C114.261 442.904 99.7624 452.587 115.906 465.345C115.906 465.345 118.172 467.219 121.628 467.93Z" stroke="white" stroke-width="2" stroke-miterlimit="10"/>
<path d="M159.311 402.687C160.495 404.586 164.767 410.229 171.973 406.468C172.3 406.293 172.484 405.939 172.474 405.584L171.75 389.864C171.714 389.013 170.669 388.659 170.107 389.29L159.409 401.584C159.14 401.894 159.105 402.332 159.311 402.687Z" stroke="white" stroke-width="2" stroke-miterlimit="10"/>
<path d="M163.452 461.766C175.896 462.259 173.939 450.755 173.939 450.755C172.596 434.497 157.999 431.108 157.999 431.108C143.939 426.847 133.884 437.851 133.884 437.851C124.426 449.27 137.389 454.254 137.389 454.254C137.389 454.254 154.578 461.412 163.452 461.766Z" stroke="white" stroke-width="2" stroke-miterlimit="10"/>
<path d="M151.382 437.254C152.183 437.495 153.027 437.042 153.269 436.241C153.51 435.441 153.057 434.596 152.257 434.355C151.456 434.113 150.611 434.566 150.37 435.367C150.128 436.167 150.582 437.012 151.382 437.254Z" fill="white"/>
<path d="M160.233 439.885C161.033 440.126 161.878 439.673 162.12 438.872C162.361 438.072 161.908 437.227 161.107 436.986C160.307 436.744 159.462 437.197 159.221 437.998C158.979 438.798 159.432 439.643 160.233 439.885Z" fill="white"/>
<path d="M145.515 445.441C145.515 445.441 151.338 455.065 159.759 449.738" stroke="white" stroke-miterlimit="10"/>
<path d="M180.621 412.103C180.621 412.103 183.624 409.592 187.446 409.866C187.446 409.866 193.014 409.984 191.709 413.984C191.709 413.984 188.97 419.893 183.646 420.649C183.646 420.649 183.133 414.52 180.621 412.103Z" stroke="white" stroke-width="2" stroke-miterlimit="10"/>
<path d="M148.213 402.326C148.213 402.326 147.1 398.574 143.764 396.689C143.764 396.689 139.06 393.708 137.935 397.761C137.935 397.761 136.949 404.199 140.966 407.774C140.966 407.774 144.784 402.951 148.213 402.326Z" stroke="white" stroke-width="2" stroke-miterlimit="10"/>
<path d="M260.704 393.591C254.756 396.201 251.566 402.464 252.578 408.606C258.518 408.979 265.209 411.576 269.435 419.915C270.259 419.716 271.095 419.45 271.894 419.1C278.93 416.014 282.135 407.799 279.049 400.763C275.962 393.727 267.74 390.505 260.704 393.591Z" stroke="white" stroke-width="2" stroke-miterlimit="10"/>
<path d="M258.017 403.102C255.434 404.235 253.593 406.32 252.656 408.758C258.372 409.269 264.662 411.921 268.737 419.779C271.879 416.962 273.034 412.342 271.244 408.263C269.015 403.182 263.099 400.873 258.017 403.102Z" fill="white"/>
<path d="M212.746 414.63C218.694 412.02 225.189 413.568 229.015 418.456C225.267 423.079 222.92 430.107 226.194 438.864C225.489 439.335 224.727 439.771 223.928 440.121C216.893 443.208 208.678 440.002 205.591 432.967C202.505 425.931 205.71 417.716 212.746 414.63Z" stroke="white" stroke-width="2" stroke-miterlimit="10"/>
<path d="M220.777 419.171C223.361 418.038 226.141 418.094 228.569 419.056C225.075 423.608 222.766 430.032 225.787 438.352C221.587 438.756 217.406 436.477 215.617 432.398C213.388 427.317 215.713 421.392 220.777 419.171Z" fill="white"/>
<path d="M238.687 437.639C240.526 436.832 241.363 434.687 240.556 432.847C239.749 431.008 237.604 430.17 235.764 430.977C233.925 431.784 233.088 433.93 233.895 435.77C234.702 437.609 236.847 438.446 238.687 437.639Z" fill="white" stroke="white" stroke-miterlimit="10"/>
<path d="M260.524 428.059C262.364 427.252 263.201 425.107 262.394 423.267C261.587 421.428 259.442 420.591 257.602 421.398C255.762 422.205 254.925 424.35 255.732 426.19C256.539 428.029 258.685 428.866 260.524 428.059Z" fill="white" stroke="white" stroke-miterlimit="10"/>
<path d="M281.773 425.405C281.773 425.405 272.75 425.209 267.157 432.83" stroke="white" stroke-width="2" stroke-miterlimit="10"/>
<path d="M286.724 435.352C286.724 435.352 278.159 432.503 270.579 438.138" stroke="white" stroke-width="2" stroke-miterlimit="10"/>
<path d="M222.327 451.483C222.327 451.483 228.293 444.712 237.689 445.757" stroke="white" stroke-width="2" stroke-miterlimit="10"/>
<path d="M226.292 461.862C226.292 461.862 229.996 453.63 239.276 451.87" stroke="white" stroke-width="2" stroke-miterlimit="10"/>
<path d="M250.416 438.877L253.492 437.528C255.378 436.7 257.138 437.894 256.409 439.511L255.491 441.576C254.948 442.786 253.299 443.51 252.041 443.089L249.9 442.366C248.216 441.808 248.53 439.705 250.416 438.877Z" fill="white" stroke="white" stroke-miterlimit="10"/>
<path d="M249.332 452.16L253.818 442.937L264.14 446.556" stroke="white" stroke-width="2" stroke-miterlimit="10"/>
<path d="M248.291 488.729L226.716 439.547C226.716 439.547 218.344 420.462 239.919 410.653C239.919 410.653 260.66 401.899 269.589 420.314L291.61 469.726" stroke="white" stroke-width="2" stroke-miterlimit="10"/>
<path d="M226.179 142.328L215.728 168.939C215.728 168.939 236.924 175.779 228.978 194.171C228.978 194.171 224.101 207.605 207.543 207.718" stroke="#FCF5EF" stroke-width="2" stroke-miterlimit="10"/>
<path d="M208.934 202.705C207.38 200.965 201.949 195.935 195.243 201.125C194.945 201.371 194.797 201.749 194.905 202.126L198.524 218.161C198.717 219.002 199.866 219.217 200.303 218.452L209.088 203.86C209.236 203.482 209.222 203.014 208.934 202.705Z" stroke="#FCF5EF" stroke-width="2" stroke-miterlimit="10"/>
<path d="M167.171 130.625C160.159 138.775 166.356 151.601 166.356 151.601C155.013 166.645 168.163 177.434 168.163 177.434C159.477 195.814 175.941 200.039 175.941 200.039C174.523 226.123 196.86 211.03 196.86 211.03L195.419 204.539L186.288 210.287C185.166 211.007 183.637 210.389 183.36 209.084L182.761 203.608C182.761 203.608 179.684 142.405 182.142 134.358" stroke="#FCF5EF" stroke-width="2" stroke-miterlimit="10"/>
<path d="M200.359 185.063C198.523 186.123 197.895 188.469 198.954 190.305C200.014 192.14 202.36 192.769 204.196 191.709C206.031 190.649 206.66 188.303 205.6 186.468C204.541 184.632 202.194 184.004 200.359 185.063Z" fill="#FCF5EF" stroke="#FCF5EF" stroke-width="2" stroke-miterlimit="10"/>
<path opacity="0.35" d="M336.812 18.6692C336.812 17.4726 337.782 16.5026 338.979 16.5026H355.469C356.666 16.5026 357.636 17.4726 357.636 18.6692V24.6692C357.636 25.8658 356.666 26.8359 355.469 26.8359H338.979C337.782 26.8359 336.812 25.8658 336.812 24.6692V18.6692Z" stroke="black"/>
<path opacity="0.4" d="M359.128 19.6692V23.6692C359.926 23.3304 360.445 22.5423 360.445 21.6692C360.445 20.7961 359.926 20.008 359.128 19.6692Z" fill="black"/>
<path d="M338.296 19.3359C338.296 18.5995 338.893 18.0026 339.629 18.0026H354.819C355.555 18.0026 356.152 18.5995 356.152 19.3359V24.0026C356.152 24.7389 355.555 25.3359 354.819 25.3359H339.629C338.893 25.3359 338.296 24.7389 338.296 24.0026V19.3359Z" fill="black"/>
<path fill-rule="evenodd" clip-rule="evenodd" d="M323.744 18.2773C325.942 18.2774 328.056 19.1289 329.649 20.6557C329.769 20.7735 329.961 20.772 330.079 20.6523L331.226 19.4857C331.286 19.4249 331.319 19.3427 331.318 19.2571C331.318 19.1715 331.284 19.0897 331.223 19.0297C327.042 14.9901 320.445 14.9901 316.264 19.0297C316.203 19.0896 316.169 19.1715 316.168 19.257C316.168 19.3426 316.201 19.4249 316.261 19.4857L317.408 20.6523C317.526 20.7722 317.718 20.7737 317.838 20.6557C319.431 19.1288 321.545 18.2773 323.744 18.2773ZM323.744 22.073C324.951 22.0729 326.116 22.5255 327.011 23.3427C327.132 23.4587 327.323 23.4562 327.441 23.337L328.587 22.1704C328.647 22.1092 328.68 22.0261 328.68 21.9399C328.679 21.8536 328.644 21.7713 328.582 21.7114C325.856 19.155 321.634 19.155 318.908 21.7114C318.846 21.7713 318.811 21.8537 318.81 21.9399C318.809 22.0262 318.843 22.1092 318.903 22.1704L320.049 23.337C320.167 23.4562 320.357 23.4587 320.478 23.3427C321.373 22.526 322.537 22.0735 323.744 22.073ZM326.038 24.6268C326.04 24.7133 326.006 24.7967 325.945 24.8573L323.964 26.873C323.906 26.9323 323.826 26.9656 323.744 26.9656C323.661 26.9656 323.582 26.9323 323.524 26.873L321.542 24.8573C321.481 24.7967 321.447 24.7133 321.449 24.6268C321.451 24.5403 321.488 24.4583 321.552 24.4003C322.817 23.3215 324.67 23.3215 325.936 24.4003C325.999 24.4584 326.037 24.5403 326.038 24.6268Z" fill="black"/>
<path fill-rule="evenodd" clip-rule="evenodd" d="M312.189 16.3359H311.197C310.65 16.3359 310.205 16.7837 310.205 17.3359V26.0026C310.205 26.5549 310.65 27.0026 311.197 27.0026H312.189C312.737 27.0026 313.181 26.5549 313.181 26.0026V17.3359C313.181 16.7837 312.737 16.3359 312.189 16.3359ZM306.568 18.6693H307.56C308.108 18.6693 308.552 19.117 308.552 19.6693V26.0026C308.552 26.5549 308.108 27.0026 307.56 27.0026H306.568C306.02 27.0026 305.576 26.5549 305.576 26.0026V19.6693C305.576 19.117 306.02 18.6693 306.568 18.6693ZM302.931 21.0026H301.939C301.391 21.0026 300.947 21.4503 300.947 22.0026V26.0026C300.947 26.5549 301.391 27.0026 301.939 27.0026H302.931C303.479 27.0026 303.923 26.5549 303.923 26.0026V22.0026C303.923 21.4503 303.479 21.0026 302.931 21.0026ZM298.301 23.0026H297.309C296.762 23.0026 296.317 23.4503 296.317 24.0026V26.0026C296.317 26.5549 296.762 27.0026 297.309 27.0026H298.301C298.849 27.0026 299.293 26.5549 299.293 26.0026V24.0026C299.293 23.4503 298.849 23.0026 298.301 23.0026Z" fill="black"/>
<path d="M38.4455 22.8765C37.9133 23.355 37.3176 23.5942 36.6584 23.5942C35.6916 23.5942 34.925 23.2671 34.3586 22.6128C33.7922 21.9585 33.509 21.0845 33.509 19.9907C33.509 19.3071 33.6677 18.6724 33.9851 18.0864C34.3025 17.5005 34.7468 17.0366 35.3181 16.6948C35.8943 16.353 36.529 16.1821 37.2224 16.1821C37.9255 16.1821 38.5603 16.3604 39.1267 16.7168C39.698 17.0684 40.1423 17.5688 40.4597 18.2183C40.7771 18.8628 40.9406 19.6074 40.9504 20.4521V21.397C40.9504 22.5737 40.7185 23.5942 40.2546 24.4585C39.7956 25.3228 39.1389 25.9868 38.2844 26.4507C37.4299 26.9146 36.4338 27.1465 35.2961 27.1465H35.1423V25.1689L35.6111 25.1616C37.3103 25.0786 38.2551 24.3169 38.4455 22.8765ZM37.3249 21.8145C37.862 21.8145 38.2478 21.5825 38.4821 21.1187V20.0933C38.4821 19.4097 38.3674 18.9043 38.1379 18.5771C37.9084 18.25 37.5984 18.0864 37.2077 18.0864C36.8611 18.0864 36.5705 18.272 36.3361 18.6431C36.1018 19.0142 35.9846 19.4634 35.9846 19.9907C35.9846 20.5474 36.1042 20.9917 36.3435 21.3237C36.5827 21.6509 36.9099 21.8145 37.3249 21.8145ZM43.5435 24.605C43.9341 24.605 44.2588 24.7222 44.5176 24.9565C44.7764 25.186 44.9058 25.4814 44.9058 25.8428C44.9058 26.2041 44.7764 26.502 44.5176 26.7363C44.2588 26.9658 43.9341 27.0806 43.5435 27.0806C43.148 27.0806 42.8208 26.9634 42.562 26.729C42.3081 26.4946 42.1812 26.1992 42.1812 25.8428C42.1812 25.4863 42.3081 25.1909 42.562 24.9565C42.8208 24.7222 43.148 24.605 43.5435 24.605ZM43.5435 18.7603C43.9341 18.7603 44.2588 18.8774 44.5176 19.1118C44.7764 19.3413 44.9058 19.6367 44.9058 19.998C44.9058 20.3594 44.7764 20.6572 44.5176 20.8916C44.2588 21.1211 43.9341 21.2358 43.5435 21.2358C43.148 21.2358 42.8208 21.1187 42.562 20.8843C42.3081 20.6499 42.1812 20.3545 42.1812 19.998C42.1812 19.6416 42.3081 19.3462 42.562 19.1118C42.8208 18.8774 43.148 18.7603 43.5435 18.7603ZM51.6517 27H49.1761V19.1191L46.7444 19.8296V17.9546L51.4246 16.3359H51.6517V27ZM61.0856 22.8325H62.1695V24.7368H61.0856V27H58.6173V24.7368H54.4938L54.3473 23.228L58.6173 16.3579V16.3359H61.0856V22.8325ZM56.6984 22.8325H58.6173V19.5513L58.4635 19.8003L56.6984 22.8325Z" fill="black"/>
<path d="M75.7868 555V529.406H83.3454C85.6071 529.406 87.611 529.91 89.3571 530.918C91.1149 531.926 92.4743 533.355 93.4352 535.207C94.3962 537.059 94.8766 539.18 94.8766 541.57V542.854C94.8766 545.279 94.3903 547.412 93.4177 549.252C92.4567 551.092 91.0798 552.51 89.2868 553.506C87.5055 554.502 85.4606 555 83.152 555H75.7868ZM80.2341 532.992V551.449H83.1345C85.4665 551.449 87.2536 550.723 88.4958 549.27C89.7497 547.805 90.3884 545.707 90.4118 542.977V541.553C90.4118 538.775 89.8083 536.654 88.6012 535.189C87.3942 533.725 85.6423 532.992 83.3454 532.992H80.2341ZM97.3734 545.314C97.3734 543.451 97.7426 541.775 98.4809 540.287C99.2191 538.787 100.256 537.639 101.592 536.842C102.928 536.033 104.463 535.629 106.198 535.629C108.764 535.629 110.844 536.455 112.438 538.107C114.043 539.76 114.911 541.951 115.039 544.682L115.057 545.684C115.057 547.559 114.694 549.234 113.967 550.711C113.252 552.188 112.221 553.33 110.873 554.139C109.538 554.947 107.991 555.352 106.233 555.352C103.549 555.352 101.399 554.461 99.7816 552.68C98.1762 550.887 97.3734 548.502 97.3734 545.525V545.314ZM101.645 545.684C101.645 547.641 102.049 549.176 102.858 550.289C103.666 551.391 104.791 551.941 106.233 551.941C107.674 551.941 108.793 551.379 109.59 550.254C110.399 549.129 110.803 547.482 110.803 545.314C110.803 543.393 110.387 541.869 109.555 540.744C108.735 539.619 107.616 539.057 106.198 539.057C104.803 539.057 103.696 539.613 102.875 540.727C102.055 541.828 101.645 543.48 101.645 545.684ZM129.472 553.137C128.218 554.613 126.437 555.352 124.128 555.352C122.066 555.352 120.501 554.748 119.435 553.541C118.38 552.334 117.853 550.588 117.853 548.303V535.98H122.124V548.25C122.124 550.664 123.126 551.871 125.13 551.871C127.204 551.871 128.605 551.127 129.331 549.639V535.98H133.603V555H129.577L129.472 553.137ZM153.924 545.684C153.924 548.637 153.262 550.986 151.937 552.732C150.625 554.479 148.814 555.352 146.506 555.352C144.279 555.352 142.545 554.549 141.303 552.943L141.092 555H137.224V528H141.496V537.809C142.726 536.355 144.385 535.629 146.471 535.629C148.791 535.629 150.613 536.49 151.937 538.213C153.262 539.936 153.924 542.344 153.924 545.438V545.684ZM149.652 545.314C149.652 543.252 149.289 541.705 148.562 540.674C147.836 539.643 146.781 539.127 145.398 539.127C143.547 539.127 142.246 539.936 141.496 541.553V549.393C142.258 551.045 143.57 551.871 145.433 551.871C146.769 551.871 147.801 551.373 148.527 550.377C149.254 549.381 149.629 547.875 149.652 545.859V545.314ZM161.342 555H157.071V528H161.342V555ZM173.665 555.352C170.958 555.352 168.761 554.502 167.074 552.803C165.398 551.092 164.56 548.818 164.56 545.982V545.455C164.56 543.557 164.923 541.863 165.65 540.375C166.388 538.875 167.419 537.709 168.743 536.877C170.068 536.045 171.544 535.629 173.173 535.629C175.763 535.629 177.761 536.455 179.167 538.107C180.585 539.76 181.294 542.098 181.294 545.121V546.844H168.866C168.995 548.414 169.517 549.656 170.431 550.57C171.357 551.484 172.517 551.941 173.911 551.941C175.868 551.941 177.462 551.15 178.693 549.568L180.995 551.766C180.234 552.902 179.214 553.787 177.937 554.42C176.671 555.041 175.247 555.352 173.665 555.352ZM173.156 539.057C171.984 539.057 171.034 539.467 170.308 540.287C169.593 541.107 169.136 542.25 168.937 543.715H177.075V543.398C176.982 541.969 176.601 540.891 175.933 540.164C175.265 539.426 174.339 539.057 173.156 539.057ZM199.964 551.941C201.03 551.941 201.915 551.631 202.618 551.01C203.321 550.389 203.696 549.621 203.743 548.707H207.768C207.721 549.891 207.352 550.998 206.661 552.029C205.969 553.049 205.032 553.857 203.848 554.455C202.665 555.053 201.387 555.352 200.016 555.352C197.356 555.352 195.247 554.49 193.688 552.768C192.13 551.045 191.35 548.666 191.35 545.631V545.191C191.35 542.297 192.124 539.982 193.671 538.248C195.217 536.502 197.327 535.629 199.999 535.629C202.26 535.629 204.1 536.291 205.518 537.615C206.948 538.928 207.698 540.656 207.768 542.801H203.743C203.696 541.711 203.321 540.814 202.618 540.111C201.926 539.408 201.042 539.057 199.964 539.057C198.581 539.057 197.514 539.561 196.764 540.568C196.014 541.564 195.634 543.082 195.622 545.121V545.807C195.622 547.869 195.991 549.41 196.729 550.43C197.479 551.438 198.557 551.941 199.964 551.941ZM214.484 538.055C215.878 536.438 217.642 535.629 219.775 535.629C223.83 535.629 225.886 537.943 225.945 542.572V555H221.673V542.73C221.673 541.418 221.386 540.492 220.812 539.953C220.249 539.402 219.417 539.127 218.316 539.127C216.605 539.127 215.328 539.889 214.484 541.412V555H210.212V528H214.484V538.055ZM237.934 555.352C235.227 555.352 233.029 554.502 231.342 552.803C229.666 551.092 228.828 548.818 228.828 545.982V545.455C228.828 543.557 229.192 541.863 229.918 540.375C230.656 538.875 231.688 537.709 233.012 536.877C234.336 536.045 235.813 535.629 237.442 535.629C240.031 535.629 242.029 536.455 243.436 538.107C244.854 539.76 245.563 542.098 245.563 545.121V546.844H233.135C233.264 548.414 233.785 549.656 234.699 550.57C235.625 551.484 236.785 551.941 238.18 551.941C240.137 551.941 241.731 551.15 242.961 549.568L245.264 551.766C244.502 552.902 243.483 553.787 242.205 554.42C240.94 555.041 239.516 555.352 237.934 555.352ZM237.424 539.057C236.252 539.057 235.303 539.467 234.576 540.287C233.861 541.107 233.404 542.25 233.205 543.715H241.344V543.398C241.25 541.969 240.869 540.891 240.201 540.164C239.533 539.426 238.608 539.057 237.424 539.057ZM256.55 555.352C253.843 555.352 251.645 554.502 249.958 552.803C248.282 551.092 247.444 548.818 247.444 545.982V545.455C247.444 543.557 247.807 541.863 248.534 540.375C249.272 538.875 250.304 537.709 251.628 536.877C252.952 536.045 254.429 535.629 256.057 535.629C258.647 535.629 260.645 536.455 262.052 538.107C263.47 539.76 264.179 542.098 264.179 545.121V546.844H251.751C251.88 548.414 252.401 549.656 253.315 550.57C254.241 551.484 255.401 551.941 256.796 551.941C258.753 551.941 260.347 551.15 261.577 549.568L263.88 551.766C263.118 552.902 262.099 553.787 260.821 554.42C259.556 555.041 258.132 555.352 256.55 555.352ZM256.04 539.057C254.868 539.057 253.919 539.467 253.192 540.287C252.477 541.107 252.02 542.25 251.821 543.715H259.96V543.398C259.866 541.969 259.485 540.891 258.817 540.164C258.149 539.426 257.224 539.057 256.04 539.057ZM277.451 549.832C277.451 549.07 277.134 548.49 276.502 548.092C275.88 547.693 274.843 547.342 273.39 547.037C271.937 546.732 270.724 546.346 269.752 545.877C267.619 544.846 266.552 543.352 266.552 541.395C266.552 539.754 267.244 538.383 268.627 537.281C270.009 536.18 271.767 535.629 273.9 535.629C276.173 535.629 278.007 536.191 279.402 537.316C280.808 538.441 281.511 539.9 281.511 541.693H277.24C277.24 540.873 276.935 540.193 276.326 539.654C275.716 539.104 274.908 538.828 273.9 538.828C272.962 538.828 272.195 539.045 271.597 539.479C271.011 539.912 270.718 540.492 270.718 541.219C270.718 541.875 270.994 542.385 271.545 542.748C272.095 543.111 273.209 543.48 274.884 543.855C276.56 544.219 277.873 544.658 278.822 545.174C279.783 545.678 280.492 546.287 280.949 547.002C281.418 547.717 281.652 548.584 281.652 549.604C281.652 551.314 280.943 552.703 279.525 553.77C278.107 554.824 276.25 555.352 273.953 555.352C272.394 555.352 271.005 555.07 269.787 554.508C268.568 553.945 267.619 553.172 266.939 552.188C266.259 551.203 265.92 550.143 265.92 549.006H270.068C270.127 550.014 270.507 550.793 271.211 551.344C271.914 551.883 272.845 552.152 274.005 552.152C275.13 552.152 275.986 551.941 276.572 551.52C277.158 551.086 277.451 550.523 277.451 549.832ZM293.043 555.352C290.336 555.352 288.139 554.502 286.451 552.803C284.776 551.092 283.938 548.818 283.938 545.982V545.455C283.938 543.557 284.301 541.863 285.028 540.375C285.766 538.875 286.797 537.709 288.121 536.877C289.446 536.045 290.922 535.629 292.551 535.629C295.141 535.629 297.139 536.455 298.545 538.107C299.963 539.76 300.672 542.098 300.672 545.121V546.844H288.244C288.373 548.414 288.895 549.656 289.809 550.57C290.735 551.484 291.895 551.941 293.289 551.941C295.246 551.941 296.84 551.15 298.071 549.568L300.373 551.766C299.612 552.902 298.592 553.787 297.315 554.42C296.049 555.041 294.625 555.352 293.043 555.352ZM292.534 539.057C291.362 539.057 290.412 539.467 289.686 540.287C288.971 541.107 288.514 542.25 288.315 543.715H296.453V543.398C296.36 541.969 295.979 540.891 295.311 540.164C294.643 539.426 293.717 539.057 292.534 539.057Z" fill="white"/>
</svg>
