<svg width="225" height="114" viewBox="0 0 225 114" fill="none" xmlns="http://www.w3.org/2000/svg">
<rect width="225" height="114" rx="25" fill="black" fill-opacity="0.3"/>
<rect x="26.3763" y="17" width="179.624" height="20" rx="10" fill="white" fill-opacity="0.3"/>
<rect x="26.3763" y="17" width="153.678" height="20" rx="10" fill="#FF3C38"/>
<rect x="26.3763" y="47" width="179.624" height="20" rx="10" fill="white" fill-opacity="0.3"/>
<rect x="26" y="47" width="126" height="20" rx="10" fill="#F2CB05"/>
<rect x="26.3763" y="77" width="179.624" height="20" rx="10" fill="white" fill-opacity="0.3"/>
<rect x="26" y="77" width="126" height="20" rx="10" fill="#6699CC"/>
<ellipse rx="4.13341" ry="4.13847" transform="matrix(0.889716 0.456515 -0.455003 0.89049 29.1687 46.5722)" fill="white"/>
<ellipse rx="4.13341" ry="4.13847" transform="matrix(0.889716 0.456515 -0.455003 0.89049 35.4731 49.8071)" fill="white"/>
<ellipse rx="4.13341" ry="4.13847" transform="matrix(0.889716 0.456515 -0.455003 0.89049 20.5606 63.4193)" fill="white"/>
<ellipse rx="4.13341" ry="4.13847" transform="matrix(0.889716 0.456515 -0.455003 0.89049 26.865 66.6538)" fill="white"/>
<rect width="5.90487" height="20.1011" transform="matrix(0.889716 0.456515 -0.455003 0.89049 29.963 46.3152)" fill="white"/>
<path d="M38.5764 23.624C38.8355 22.9724 38.9795 22.2631 38.9795 21.5178C38.9795 18.3681 36.4314 15.8147 33.2883 15.8147C30.4259 15.8147 28.0578 17.9329 27.6571 20.6907L27.5395 20.722C27.1532 17.9498 24.7779 15.8147 21.9035 15.8147C18.7604 15.8147 16.2123 18.3681 16.2123 21.5178C16.2123 22.2607 16.3563 22.9724 16.6154 23.624C16.6154 23.624 18.7004 29.5627 27.5971 34.8138C27.5971 34.8138 35.1622 31.253 38.4132 24.0015C38.4708 23.8789 38.5236 23.7538 38.5764 23.624C38.574 23.624 38.574 23.624 38.5764 23.624Z" fill="#E10000"/>
<path d="M27.5956 37C27.2928 37 26.99 36.9036 26.7347 36.7114L23.0935 33.9635C22.9388 33.8465 21.5398 32.7826 20.1068 31.4246C17.915 29.3476 15.3992 26.4632 15.3992 22.564C15.3992 18.3929 18.7679 15 22.9084 15C24.6335 15 26.2774 15.5898 27.5959 16.6537C28.9147 15.5898 30.5587 15 32.2834 15C36.4242 15 39.7926 18.3932 39.7926 22.564C39.7926 26.4641 37.2765 29.3479 35.0844 31.4249C33.7027 32.7338 32.3561 33.7681 32.1002 33.9622L28.4559 36.7117C28.2015 36.9036 27.8987 37 27.5956 37ZM22.9084 17.8925C20.3512 17.8925 18.2711 19.9881 18.2711 22.5637C18.2711 25.3552 20.3037 27.6392 22.0746 29.3177C23.3941 30.568 24.674 31.5416 24.816 31.6487L27.5959 33.7466L30.3768 31.6487C30.6091 31.4725 31.8449 30.5234 33.1175 29.3177C34.8884 27.6396 36.9214 25.3555 36.9214 22.5637C36.9214 19.9878 34.8409 17.8925 32.284 17.8925C30.8944 17.8925 29.5896 18.5128 28.7038 19.5944C28.4313 19.9274 28.0248 20.1206 27.5959 20.1206C27.5959 20.1206 27.5959 20.1206 27.5956 20.1206C27.1667 20.1206 26.7605 19.9274 26.4877 19.5941C25.6029 18.5125 24.2981 17.8925 22.9084 17.8925Z" fill="#E10000"/>
<rect x="25.9697" y="19.074" width="3.25245" height="3.25926" fill="#E10000"/>
<path d="M27.8949 99.0266C33.1187 99.0266 37.3534 95.0911 37.3534 90.2364C37.3534 85.3817 33.1187 81.4461 27.8949 81.4461C22.6712 81.4461 18.4365 85.3817 18.4365 90.2364C18.4365 95.0911 22.6712 99.0266 27.8949 99.0266Z" fill="#0025FF"/>
<path d="M18.4363 90.8222C17.6481 81.2996 27.873 75 27.873 75C27.873 75 37.3531 83.2039 37.3531 90.236" fill="#0025FF"/>
</svg>
