<svg width="70" height="70" viewBox="0 0 70 70" fill="none" xmlns="http://www.w3.org/2000/svg">
<rect width="70" height="70" rx="25" fill="#FEA735"/>
<path d="M24.6183 55.1158V30.4358C24.6183 30.4358 24.6183 20.8588 35.5086 20.7138C35.5086 20.7138 45.8531 20.8588 46.2112 30.2567L46.3562 55.1158H24.6183Z" fill="white" stroke="black" stroke-width="2" stroke-miterlimit="10"/>
<path d="M29.8459 32.4313C30.7691 32.4313 31.5174 31.6829 31.5174 30.7598C31.5174 29.8367 30.7691 29.0883 29.8459 29.0883C28.9228 29.0883 28.1744 29.8367 28.1744 30.7598C28.1744 31.6829 28.9228 32.4313 29.8459 32.4313Z" fill="black" stroke="black" stroke-miterlimit="10"/>
<path d="M40.8045 32.4313C41.7276 32.4313 42.476 31.6829 42.476 30.7598C42.476 29.8367 41.7276 29.0883 40.8045 29.0883C39.8814 29.0883 39.133 29.8367 39.133 30.7598C39.133 31.6829 39.8814 32.4313 40.8045 32.4313Z" fill="black" stroke="black" stroke-miterlimit="10"/>
<path d="M46.3647 55.0817C46.3647 55.0817 52.3343 55.8322 52.8972 50.451C52.8972 50.451 54.1593 45.1551 47.84 41.5137C47.1919 41.1384 46.3647 41.6075 46.3647 42.3409V55.0817Z" fill="#D3AF7C" stroke="black" stroke-width="2" stroke-miterlimit="10"/>
<path d="M24.6353 55.0817C24.6353 55.0817 18.6657 55.8322 18.1028 50.451C18.1028 50.451 16.8407 45.1551 23.1599 41.5137C23.8081 41.1384 24.6353 41.6075 24.6353 42.3409V55.0817Z" fill="#D3AF7C" stroke="black" stroke-width="2" stroke-miterlimit="10"/>
<path d="M33.3424 20.7138C33.3424 20.7138 33.1292 16.2366 35.5 15C35.5 15 38.0243 16.5947 37.6235 20.7138C37.6235 20.7138 35.9776 20.0401 33.3424 20.7138Z" fill="#D3AF7C" stroke="black" stroke-width="2" stroke-miterlimit="10"/>
<path d="M42.945 38.597C44.2826 38.597 45.367 37.5127 45.367 36.1751C45.367 34.8375 44.2826 33.7531 42.945 33.7531C41.6074 33.7531 40.5231 34.8375 40.5231 36.1751C40.5231 37.5127 41.6074 38.597 42.945 38.597Z" fill="#D7B995"/>
<path d="M27.9101 38.597C29.2477 38.597 30.3321 37.5127 30.3321 36.1751C30.3321 34.8375 29.2477 33.7531 27.9101 33.7531C26.5725 33.7531 25.4882 34.8375 25.4882 36.1751C25.4882 37.5127 26.5725 38.597 27.9101 38.597Z" fill="#D7B995"/>
<path d="M30.2894 35.7061L33.6921 33.5911C34.5875 33.0283 36.0203 32.9771 36.9839 33.4632L40.5486 35.2626C41.8534 35.9193 41.6658 37.1985 40.1905 37.7357L36.7537 38.9979C36.0714 39.2452 35.2442 39.2793 34.5278 39.0917L30.9972 38.1451C29.4281 37.7272 29.0614 36.465 30.2894 35.7061Z" fill="#BB8682" stroke="black" stroke-miterlimit="10"/>
<path d="M29.1722 36.8318C29.1722 36.8318 35.3635 38.0171 41.8192 36.2604" stroke="#040000" stroke-width="0.5" stroke-miterlimit="10"/>
</svg>
