<svg width="70" height="70" viewBox="0 0 70 70" fill="none" xmlns="http://www.w3.org/2000/svg">
<rect width="70" height="70" rx="25" fill="#FEA735"/>
<path d="M27.5919 56.0691V30.7395C27.5919 30.7395 27.5919 20.9104 38.7688 20.7617C38.7688 20.7617 49.3856 20.9104 49.7532 30.5557L49.902 56.0691" fill="white"/>
<path d="M27.5919 56.0691V30.7395C27.5919 30.7395 27.5919 20.9104 38.7688 20.7617C38.7688 20.7617 49.3856 20.9104 49.7532 30.5557L49.902 56.0691H27.5919Z" stroke="black" stroke-width="2" stroke-miterlimit="10"/>
<path d="M32.9572 32.7963C33.9046 32.7963 34.6727 32.0283 34.6727 31.0808C34.6727 30.1334 33.9046 29.3654 32.9572 29.3654C32.0097 29.3654 31.2417 30.1334 31.2417 31.0808C31.2417 32.0283 32.0097 32.7963 32.9572 32.7963Z" fill="black" stroke="black" stroke-miterlimit="10"/>
<path d="M44.204 32.7963C45.1514 32.7963 45.9195 32.0283 45.9195 31.0808C45.9195 30.1334 45.1514 29.3654 44.204 29.3654C43.2566 29.3654 42.4885 30.1334 42.4885 31.0808C42.4885 32.0283 43.2566 32.7963 44.204 32.7963Z" fill="black" stroke="black" stroke-miterlimit="10"/>
<path d="M27.5919 56.0691V31.5184C27.5919 31.5184 26.174 23.6937 36.2481 19.6763C36.2481 19.6763 23.1106 17.8033 23.7758 28.1837C23.7758 28.1837 15.2247 30.4156 21.2639 37.015C21.2639 37.015 14.1656 40.8135 20.905 45.8462C20.905 45.8462 15.7148 52.148 24.6773 55.684C24.6773 55.684 25.9464 56.2179 27.5919 56.0691Z" fill="#DBA8CC" stroke="#040000" stroke-width="2" stroke-miterlimit="10"/>
<path d="M35.6618 21.7244C36.4495 22.4158 39.1277 24.3676 41.8497 21.7069C41.9723 21.5844 42.0073 21.4006 41.9548 21.243L39.5041 14.2936C39.3728 13.9172 38.8564 13.8997 38.6901 14.2585L35.5567 21.2168C35.478 21.3918 35.5217 21.5931 35.6618 21.7244Z" fill="#E73483" stroke="#040000" stroke-width="2" stroke-miterlimit="10"/>
<path d="M45.5082 47.6492C51.1535 46.1875 48.7203 41.2949 48.7203 41.2949C45.9196 34.1879 38.9176 34.643 38.9176 34.643C32.0381 34.6343 29.0185 40.9273 29.0185 40.9273C26.3228 47.3253 32.8084 47.8067 32.8084 47.8067C32.8084 47.8067 41.4821 48.6907 45.5082 47.6492Z" fill="white" stroke="black" stroke-width="2" stroke-miterlimit="10"/>
<path d="M36.7819 38.2928C37.1735 38.2928 37.4909 37.9754 37.4909 37.5838C37.4909 37.1923 37.1735 36.8749 36.7819 36.8749C36.3904 36.8749 36.073 37.1923 36.073 37.5838C36.073 37.9754 36.3904 38.2928 36.7819 38.2928Z" fill="#DBA8CC"/>
<path d="M41.1057 38.2753C41.4972 38.2753 41.8146 37.9579 41.8146 37.5664C41.8146 37.1748 41.4972 36.8574 41.1057 36.8574C40.7141 36.8574 40.3967 37.1748 40.3967 37.5664C40.3967 37.9579 40.7141 38.2753 41.1057 38.2753Z" fill="#DBA8CC"/>
<path d="M35.2592 42.7566C35.2592 42.7566 39.1715 46.2838 42.2261 42.7566" stroke="#040000" stroke-miterlimit="10"/>
<path d="M46.4884 23.0635C46.4884 23.0635 47.4949 21.5318 49.2454 21.138C49.2454 21.138 51.7574 20.4378 51.7136 22.4071C51.7136 22.4071 51.2848 25.4267 49.0004 26.4857C49.0004 26.4857 47.9413 23.8075 46.4884 23.0635Z" fill="white" stroke="black" stroke-width="2" stroke-miterlimit="10"/>
<path d="M30.6377 23.0635C30.6377 23.0635 29.6311 21.5318 27.8806 21.138C27.8806 21.138 25.3687 20.4378 25.4124 22.4071C25.4124 22.4071 25.8413 25.4267 28.1257 26.4857C28.1257 26.4857 29.1847 23.8075 30.6377 23.0635Z" fill="white" stroke="black" stroke-width="2" stroke-miterlimit="10"/>
</svg>
