<svg width="70" height="70" viewBox="0 0 70 70" fill="none" xmlns="http://www.w3.org/2000/svg">
<rect width="70" height="70" rx="25" fill="#FEA735"/>
<path d="M48.4042 37.2565H22.3635C21.0578 37.2565 20 36.208 20 34.9138C20 33.6196 21.0578 32.5711 22.3635 32.5711H48.4042C49.7089 32.5711 50.7667 33.6196 50.7667 34.9138C50.7667 36.208 49.7089 37.2565 48.4042 37.2565Z" fill="#FCF5EF"/>
<path d="M35.3829 50.8276C34.0782 50.8276 33.0204 49.7791 33.0204 48.4849V21.3427C33.0204 20.0495 34.0782 19 35.3829 19C36.6886 19 37.7464 20.0485 37.7464 21.3427V48.4849C37.7464 49.7791 36.6886 50.8276 35.3829 50.8276Z" fill="#FCF5EF"/>
</svg>
